<?xml version="1.0" encoding="utf-8"?>
<!-- Generator: Adobe Illustrator 21.0.2, SVG Export Plug-In . SVG Version: 6.00 Build 0)  -->
<svg version="1.1" id="Layer_1" xmlns="http://www.w3.org/2000/svg" xmlns:xlink="http://www.w3.org/1999/xlink" x="0px" y="0px"
	 viewBox="0 0 612 792" style="enable-background:new 0 0 612 792;" xml:space="preserve">
<style type="text/css">
	.st0{fill:#FFFFFF;}
</style>
<g>
	<g>
		<path d="M700.4,86.5c25.9,0,51.8,0,77.8,0c0,206.4,0,412.8,0,619.2c-314.6,0-629.1,0-943.7,0c0-206.4,0-412.8,0-619.2
			c287.8,0,575.7,0,863.5,0c-2.9,5.2-5.8,10.4-8.6,15.7c-6.4,12.1-12.7,24.1-19,36.2c-6.3,12.2-12.6,24.4-18.8,36.6
			c-0.9,1.8-1.7,3-3.9,3.2c-1.9,0.2-3.7,0.8-5.6,1.2c-7.4,1.6-14.8,3.2-22.2,4.8c-9.1,1.9-18.3,3.7-27.4,5.7c-9,1.9-18,4-27.1,6
			c-9.4,2-18.9,3.9-28.3,5.9c-11,2.3-21.9,4.8-32.9,7.1c-13.2,2.8-26.4,5.4-39.6,8.2c-11.2,2.4-22.4,4.9-33.6,7.4
			c-10,2.2-20,4.2-30,6.3c-7.8,1.6-15.6,3.2-23.4,4.9c-9,1.9-17.9,3.9-26.9,5.8c-9,1.9-18,3.7-26.9,5.6c-11.3,2.4-22.6,5-33.9,7.4
			c-9,1.9-18.1,3.6-27.2,5.5c-11.3,2.4-22.6,5-33.9,7.4c-11.5,2.4-23,4.8-34.4,7.1c-1.9,0.4-2.9,1.2-2.4,3.4
			c2,8.7,3.7,17.5,5.6,26.2c0.8,3.6,1.6,7.3,2.5,11.2c2.2-0.7,4.3-1.6,5.4,1.1c0,0.1,0.5,0,0.7,0.1c0.5,0.3,1.2,0.7,1.2,1.1
			c0.1,2.9,1.5,2.9,3.9,2.2c3.1-0.9,3.7-0.4,4.1,2.6c0.2,1.6,0.6,2.7,2.3,3.5c0.9,0.4,1.2,2.2,1.5,3.5c0.1,0.3-0.4,1-0.8,1.2
			c-0.8,0.4-1.7,0.7-3,1.2c-3.6-1.1-3.6-1.1-4.9,2.3c-0.4,1.2-0.3,1.9,1.1,2.4c2.4,0.9,4.8,2,7.2,3c6.2,2.8,12.3,5.7,18.6,8.4
			c0.5,0.2,2.2-0.6,2.2-0.9c0.1-1.4,2.6-2.5,0.6-3.9c-1.3-0.9-2.4-1.5-2.9-3.4c-0.5-1.6-0.4-2.1,0.8-2.7c6-3,8.2-8,7.4-14.4
			c-0.2-1.8-0.2-3,1.7-3.7c-0.1-0.6-0.2-0.9-0.3-1.3c-1-4.6-1-4.6,3.5-5.9c1.4-0.4,2-1.2,1.6-2.7c-0.3-1.1-0.6-2.2,1-2.7
			c0.3-0.1,0.4-0.6,0.6-0.9c0.5-0.6,0.9-1.5,1.5-1.6c3.8-1,7.6-1.8,11.4-2.6c6.6-1.4,13.3-2.7,19.9-4.2c7.4-1.6,14.8-3.2,22.2-4.8
			c4.9-1.1,9.8-2,14.8-3.1c7.7-1.6,15.5-3.3,23.2-4.9c4.7-1,9.4-2,14-3c7.3-1.6,14.6-3.1,22-4.7c5.2-1.1,10.4-2.5,15.7-3.3
			c2.8-0.4,5.9-3.1,8.7,0.3c0.2,0.2,1-0.1,1.6-0.2c3-0.6,5.9-1.3,8.9-1.9c1.5-0.3,2.5,0,2.6,1.8c0,1.7,0.8,2.3,2.5,1.9
			c1.9-0.4,2.1,0.5,1.6,2c-0.4,1.3-1.1,2.5-1.2,3.9c-0.3,2.5-1.7,3-4,3c-8.2-0.1-16.5,0-24.7-0.1c-1.7,0-2.7,0.3-2.7,2.3
			c0.1,13.8,0.1,27.5,0,41.3c0,1.9,0.8,2.3,2.5,2.3c3.6-0.1,7.2,0,10.8-0.1c2,0,2.7,0.5,2.3,2.7c-1.5,8.2-2.9,16.5-4.3,24.7
			c-1.6,9-3.3,18-4.8,27.1c-1.5,8.3-2.8,16.7-4.3,25c-1.9,10.9-4,21.8-5.9,32.7c-1.6,9.1-3.1,18.2-4.7,27.3
			c-1.5,8.2-3.1,16.5-4.5,24.7c-1.5,8.6-2.9,17.3-4.4,25.9c-1.9,10.8-4,21.6-5.9,32.5c-2,11.5-3.9,22.9-5.9,34.4c-0.3,2-1.3,3-3.5,3
			c-5.9-0.1-11.8-0.1-17.8,0c-0.6,0-1.7,0.3-1.8,0.7c-0.2,0.6,0.2,1.4,0.5,2.1c0.4,1.1,1.3,2.2,1.3,3.3c0.1,10.5,0.1,21,0.1,31.4
			c0,8.2,0,16.5,0,24.7c0,3.4-0.2,3.6-3.5,3.6c-2,0-4,0.2-6,0c-4.5-0.4-8.5,0.4-11.6,4c-1,1.2-1.7,2.1-1.7,3.7
			c0.1,4.1-0.1,8.2,0.1,12.2c0.1,2.1-0.6,2.8-2.7,2.8c-12.3-0.1-24.6,0-37,0c-3.2,0-3.3-0.1-3.3-3.2c0-11.8,0-23.5,0-35.3
			c0-0.7-0.9-2-1.2-2c-3.1,0.4-3.1-1.5-3.1-3.7c0-1.1-0.5-2.3-0.9-3.4c-0.3-0.9-1.2-1.7-1.2-2.6c-0.1-14-0.1-28,0-42
			c0-0.8,0.7-1.6,1.1-2.4c0.3-0.6,0.7-1.1,1-1.6c-0.7-0.3-1.3-0.8-2-0.8c-22.3,0-44.6,0-67,0c-2.8,0-3.2-0.3-3.2-3.1
			c0-7.3,0-14.6,0-21.8c0-1.3,0-2.5-1.6-3.1c-0.6-0.2-1-1.5-1.1-2.3c-0.3-4-0.2-8-0.6-11.9c-1-9-4.8-17-10.4-24.1
			c-6.3-8-14.2-13.7-23.9-16.9c-2.6-0.9-2.7-1.3-1.5-3.8c0.6-1.2,1.1-2.3,1.6-3.5c6-13.7,12-27.3,18-41c4.8-10.9,9.7-21.9,14.5-32.8
			c6-13.6,11.9-27.1,17.9-40.7c0.5-1.1,0.9-2.3-0.7-2.7c-1.3-0.3-2.8-1.7-3.8,0.7c-1.4,3.4-2.9,6.7-4.4,10.1
			c-4.6,10.3-9.2,20.5-13.7,30.8c-4.6,10.4-9.1,20.7-13.6,31.1c-4.2,9.6-8.4,19.1-12.6,28.7c-2.8,6.3-5.6,12.5-8.3,18.8
			c-0.7,1.6-1.5,2.3-3.5,1.9c-2.4-0.5-4.9-0.9-7.3-0.7c-4.3,0.4-8.7,1-12.9,2c-13.9,3.4-24.3,11.6-31.7,23.7
			c-0.7,1.2-1.6,2.5-2.7,3.3c-5.7,4.3-11.4,8.4-17.1,12.7c-6.8,5-13.6,10.1-20.4,15.1c-0.4,0.3-0.4,1.1-0.6,1.7
			c0.6,0.2,1.3,0.4,1.9,0.4c0.3,0,0.6-0.4,1-0.7c8.7-6.5,17.5-12.9,26.2-19.4c2.4-1.7,4.8-3.4,7.3-5.2c0.2,0.6,0.3,0.7,0.3,0.9
			c-2.5,7-3.2,14.3-2.8,21.7c0,0.6-0.3,1.7-0.7,1.8c-1.6,0.7-1.4,1.9-1.4,3.2c0,5.8,0.2,11.7-0.1,17.5c-0.1,2.8,1.4,4,3.4,5.2
			c0.4,0.3,1,0.4,1.7,0.6c-0.7,1.1-1.2,1.9-1.7,2.7c-1.1-1-1.9-1.9-2.8-2.6c-5.4-4-10.8-7.9-16.3-11.9c-8.5-6.2-16.9-12.3-25.4-18.4
			c-0.6-0.4-2-0.7-2.4-0.3c-1.7,1.7-3.2,3.6-2.7,6.3c1.1,5.8,1.8,11.7,3.1,17.4c3.5,14.8,10.6,27.8,20.3,39.4
			c0.6,0.7,1.7,1.1,2.9,1.7c-1.5,2.3-3,5.1-5.1,7.3c-1.6,1.7-0.9,2.3,0.5,3.3c4.9,3.5,9.7,7,14.6,10.5c2.6,1.9,5.1,3.8,8,6
			c-0.7,0.3-1,0.5-1.3,0.5c-7.4,0-14.7,0-22.1,0c-1.5,0-1.8-0.9-1.9-2.2c-0.3-5.9-0.4-5.9-6.2-5.9c-1.6,0-2.8-0.1-3-2.2
			c-0.3-3.8,0.2-4.9,2.4-5.4c1.8-0.4,3.6-0.8,5.3-1.3c0.6-0.2,0.9-1,1.4-1.6c-0.6-0.3-1.3-0.9-1.9-0.8c-2.2,0.4-4.4,0.9-6.5,1.5
			c-2.1,0.7-2.9,0.1-2.8-2c0.1-1.5-0.6-2-2-2c-1.6,0-3.2,0.1-4.8,0c-1.8-0.1-2.8,0.3-2.7,2.5c0.1,1.8-1.6,2.8-3.1,1.8
			c-0.6-0.4-0.9-1.6-1-2.4c-0.3-2.7,1-5.8-2.2-7.7c-0.4-0.2-0.4-1.3-0.5-2c-0.1-0.9,0-1.9-0.3-2.9c-2.7-9.7-8.5-16.4-18.2-19.6
			c-0.7-0.2-1.3-0.8-1.9-1.2c0.5-0.6,0.9-1.2,1.5-1.7c8.3-6.2,16.7-12.3,25.1-18.4c1.4-1,1.9-2.1,1-3.9c-0.6,0.4-1.1,0.7-1.5,1
			c-7.8,5.7-15.6,11.5-23.4,17.1c-0.5,0.4-1.5,0.5-2.1,0.3c-1.1-0.2-2.1-1-3.2-1.1c-2.7-0.2-5.4-0.1-8.2,0c-0.9,0-2.3,0.5-2.5,1
			c-0.3,1.1-0.8,2.7,1,3.5c0.4,0.2,1,1,0.9,1.4c-0.1,0.5-0.7,1-1.2,1.3c-3.6,1.5-7.3,3-10.5,4.3c-1.9-0.6-3.6-1.1-5.2-1.7
			c-1.4-0.6-2.4-0.3-3.4,0.9c-0.9,1.1-1.4,2-0.4,3.4c0.9,1.3,1.5,2.8,2.1,4.3c0.2,0.5,0.1,1.3-0.1,1.7c-2,3.6-3.3,7.4-3.5,11.6
			c0,0.6-0.4,1.4-0.8,1.6c-1.8,0.9-1.9,2.3-1.8,4c0.1,1.3,0.2,2.6-0.1,3.8c-0.2,0.7-1.2,1.7-1.8,1.7c-0.8,0-2.3-1-2.2-1.5
			c0.3-3.2-1.6-3.1-3.8-2.9c-1.3,0.1-2.6,0.1-3.8,0c-1.3-0.1-1.9,0.4-1.9,1.8c0,0.9-0.4,1.8-0.7,2.6c-0.4,1.1-1.3,2.2-1.3,3.3
			c-0.1,7.2,0.2,6.1-6.1,6c-2.2,0-2.7,0.8-2.7,2.9c0.1,5.6,0,11.2,0.1,16.8c0,1.6-0.3,2.8-2.3,2.9c-1.9,0-2.5-0.8-2.6-2.6
			c0-0.7-0.6-1.8-1-1.8c-1-0.1-2.3,0-3,0.6c-2,1.9-2.9,1.9-4.9,0.1c-0.7-0.7-2.2-0.9-3.2-0.7c-0.5,0.1-0.9,1.4-1.4,2.1
			c-0.4,0.7-0.8,1.4-1.2,2c-0.4-0.7-1-1.4-1-2.1c-0.1-8.2,0-16.5,0-24.7c0-0.6,0.4-1.3,0.7-1.9c0.4-0.7,1-1.2,1.5-1.8
			c-0.8-0.3-1.7-0.8-2.5-0.8c-20.8,0-41.6,0-62.4,0c-0.6,0-1.2-0.1-1.7,0.1c-0.5,0.1-1,0.5-1.2,0.9c-0.1,0.2,0.4,0.7,0.6,1.1
			c0.4,0.9,1.2,1.7,1.2,2.6c0.1,15.8,0.1,31.5,0,47.3c0,0.7-0.2,1.7-0.6,1.9c-1.7,0.7-1.5,2.1-1.5,3.4c0,1.8-0.1,3.7,0,5.5
			c0.2,2.2-0.6,3-2.9,2.9c-5.4-0.1-10.9,0-16.3,0c-2.5,0-4.9,0-7.5,0c0,1,0,1.6,0,2.5c0.9,0,1.7,0,2.5,0c29.7,0,59.4,0,89,0
			c237.9,0,475.8,0,713.7,0c1,0,2.7,0.7,2.7-1.2c0-0.4-1.8-0.9-2.8-1.3c-0.4-0.1-1,0-1.4,0c-14.2,0-28.3,0-42.5,0
			c-2.8,0-5.6,0-8.4,0c-1.6,0-2.3-0.7-2.3-2.3c0.1-2.2-0.1-4.3,0.1-6.5c0.1-2-0.5-2.9-2.7-2.8c-3.4,0.2-6.7,0-10.1,0.1
			c-2.2,0.1-3.2-0.5-3.1-3c0.2-3.2-0.2-6.4,0.1-9.6c0.4-3.7-0.7-6.3-3.9-8.2c-1.5-0.9-2.7-2.1-2.7-4.2c0-19.4,0-38.7,0.1-58.1
			c0-0.8,0.5-1.5,0.9-2.3c0.4-0.8,0.8-1.5,1.2-2.3c-0.8-0.3-1.6-0.8-2.4-0.9c-6.7-0.1-13.4,0-20.2,0c-4.6,0-9.1,0-13.7,0
			c-1.2,0-2.4,0.1-2.7-1.6c-0.7-4.4-1.6-8.8-2.3-13.2c-1.5-8.5-2.8-17-4.3-25.5c-2-11.4-4.1-22.7-6.2-34.1c-1.5-8.5-2.9-17-4.4-25.5
			c-1.5-8.5-3.1-16.9-4.6-25.4c-1.5-8.6-2.8-17.2-4.3-25.7c-2-11.4-4.1-22.7-6.2-34.1c-1.6-8.9-3.1-17.8-4.6-26.6
			c-1.4-8.2-3-16.3-4.4-24.5c-1.3-7.1-2.4-14.1-3.7-21.2c-0.3-1.8,0.2-2.6,2-2.6c1.8,0,3.7,0,5.5,0c1.6,0,2.3,0.7,2.2,2.4
			c-0.1,2.2-0.1,4.5,0,6.7c0,0.6,1,1.1,1.5,1.6c0.4-0.6,1.1-1.1,1.2-1.7c0.1-2.3,0.1-4.6,0-7c0-1.3,0.4-2.3,1.9-2.1
			c2.1,0.2,2.4-0.9,2.4-2.6c0-13.5,0-27,0-40.6c0-2.1-0.7-2.8-2.8-2.8c-8.5,0.1-17,0-25.4,0c-3.3,0-3.7-0.4-4.6-3.6
			c-0.5-1.8-0.9-3.8-1.9-5.4c-1.7-2.8-3.7-5.4-5.8-8.4c1.1-0.4,2-0.7,2.8-1c1.6-0.4,2.7-0.9,2-2.9c-0.5-1.5,0.2-2.4,1.8-2.6
			c2.9-0.5,5.8-1.1,8.7-1.7c0.6-0.1,1.7-0.6,1.7-0.9c0.1-2,1.8-2.3,3-2.6c6.9-1.5,13.9-2.9,20.8-4.3c6.9-1.4,13.7-2.9,20.6-4.4
			c7.5-1.6,15-3.2,22.5-4.8c6.7-1.4,13.4-2.8,20.1-4.2c7.6-1.6,15.1-3.3,22.7-4.9c6.8-1.4,13.6-2.8,20.4-4.3
			c7.2-1.6,14.5-3.2,21.7-4.7c7.3-1.6,14.7-3,22-4.6c4.3-1,4.2-1.1,6.8,2.4c12.1,16.7,24.1,33.4,36.2,50.1
			c16.3,22.6,32.7,45.1,49.1,67.7c1.1,1.6,2.2,2.3,4.1,1.8c2-0.5,4-0.9,6.1-1.2c1.7-0.3,2.4-1.3,2.6-2.9c0.5-3.9,1-7.7,1.6-11.6
			c0.1-0.7,0.5-1.4,0.8-2.2c0.6,0.7,0.8,1.3,0.8,1.9c0,13.8,0,27.7,0.1,41.5c0,1.4-0.4,2.3-2,2.7c-1.9,0.5-3.1,3.6-1.8,4.1
			c2,0.8,1.7,2.2,1.7,3.7c0,1.7,0.1,3.4,0,5c-0.1,2-0.6,3.8-2.7,4.9c-1.3,0.7-1.2,2.4-0.1,2.6c4,0.8,3.8,3.8,3.8,6.6
			c0,67,0,134.1,0,201.1c0,0.9-0.2,1.8,0.1,2.6c0.3,0.7,1,1.6,1.7,1.8c2.4,0.6,2.4-1.1,2.4-2.9c0-67.4,0-134.7,0-202.1
			c0-0.8,0-1.6,0-2.4c0.2-2.6,1.5-4,4-4.7c0.5-0.1,1.2-0.7,1.2-1.1c0-0.5-0.5-1.2-0.9-1.6c-0.7-0.8-2.1-1.4-2.2-2.1
			c-0.4-3.4-0.5-6.9-0.6-10.4c0-0.2,0.3-0.5,0.5-0.7c0.5-0.6,1.6-1.4,1.5-1.7c-0.5-1.1-1.3-2.7-2.2-2.8c-2.2-0.5-2.4-1.7-2.3-3.5
			c0.1-1.9,0-3.8,0-5.8c-0.5-34.9,1.1-69.7-1.1-104.6c-0.4-6.5-1-13.1-2.2-19.5c-2.2-11.8-4.6-23.5-7.5-35.1c-2.3-9-5.1-18-8.2-26.7
			c-5-14.1-11-27.7-18-40.9c-6.3-12-13.3-23.6-21.1-34.8C704.6,94.4,700.9,91.4,700.4,86.5z M229,362.9c0.5-0.4,1.2-0.7,1.5-1.3
			c1.7-3.7,3.4-7.4,4.9-11.1c0.2-0.5,0-1.6-0.4-1.9c-0.7-0.6-1.6-0.9-2.5-1.3c-6.4-2.7-12.8-5.2-19-8.3c-2.2-1.1-2.6-0.2-3.3,1.3
			c-1.5,3.3-2.8,6.8-4.4,10c-0.8,1.7-0.3,2.3,1.1,2.9c2.1,0.9,4.2,1.9,6.3,2.8c1.2,0.5,1.9,1,1.2,2.3c-0.9,1.7,0.4,2.3,1.5,2.8
			c1.2,0.6,2.2,0.4,2.7-0.9c0.6-1.5,1.4-1.3,2.6-0.7C223.7,360.7,226.2,361.7,229,362.9z"/>
		<path class="st0" d="M700.4,86.5c0.5,4.9,4.2,7.9,6.7,11.6c7.8,11.1,14.8,22.7,21.1,34.8c7,13.2,13,26.8,18,40.9
			c3.1,8.8,5.9,17.7,8.2,26.7c2.9,11.6,5.3,23.3,7.5,35.1c1.2,6.4,1.8,13,2.2,19.5c2.2,34.8,0.6,69.7,1.1,104.6c0,1.9,0.1,3.8,0,5.8
			c-0.1,1.8,0.1,3,2.3,3.5c0.9,0.2,1.6,1.8,2.2,2.8c0.1,0.3-1,1.1-1.5,1.7c-0.2,0.2-0.5,0.5-0.5,0.7c0.2,3.5,0.2,7,0.6,10.4
			c0.1,0.8,1.5,1.4,2.2,2.1c0.4,0.5,0.9,1.1,0.9,1.6c0,0.4-0.7,1-1.2,1.1c-2.5,0.7-3.8,2.1-4,4.7c-0.1,0.8,0,1.6,0,2.4
			c0,67.4,0,134.7,0,202.1c0,1.8,0,3.4-2.4,2.9c-0.7-0.2-1.4-1.1-1.7-1.8c-0.3-0.8-0.1-1.7-0.1-2.6c0-67,0-134.1,0-201.1
			c0-2.9,0.2-5.8-3.8-6.6c-1.2-0.2-1.2-2,0.1-2.6c2.1-1.1,2.5-2.9,2.7-4.9c0.1-1.7,0-3.4,0-5c0-1.5,0.3-2.9-1.7-3.7
			c-1.3-0.5-0.2-3.7,1.8-4.1c1.6-0.4,2-1.2,2-2.7c0-13.8,0-27.7-0.1-41.5c0-0.6-0.1-1.2-0.8-1.9c-0.3,0.7-0.6,1.4-0.8,2.2
			c-0.6,3.9-1.1,7.7-1.6,11.6c-0.2,1.6-0.8,2.7-2.6,2.9c-2,0.3-4.1,0.7-6.1,1.2c-1.9,0.5-3-0.2-4.1-1.8
			c-16.3-22.6-32.7-45.1-49.1-67.7c-12.1-16.7-24.1-33.4-36.2-50.1c-2.5-3.5-2.5-3.3-6.8-2.4c-7.3,1.7-14.7,3.1-22,4.6
			c-7.2,1.5-14.5,3.2-21.7,4.7c-6.8,1.5-13.6,2.8-20.4,4.3c-7.6,1.6-15.1,3.3-22.7,4.9c-6.7,1.4-13.4,2.8-20.1,4.2
			c-7.5,1.6-15,3.2-22.5,4.8c-6.9,1.5-13.7,2.9-20.6,4.4c-6.9,1.4-13.9,2.8-20.8,4.3c-1.2,0.3-2.9,0.5-3,2.6c0,0.3-1.1,0.8-1.7,0.9
			c-2.9,0.6-5.8,1.2-8.7,1.7c-1.6,0.3-2.4,1.1-1.8,2.6c0.7,2-0.4,2.5-2,2.9c-0.9,0.2-1.7,0.6-2.8,1c2.1,3,4.2,5.6,5.8,8.4
			c1,1.6,1.4,3.5,1.9,5.4c0.9,3.2,1.3,3.6,4.6,3.6c8.5,0,17,0.1,25.4,0c2.1,0,2.8,0.7,2.8,2.8c-0.1,13.5,0,27,0,40.6
			c0,1.7-0.3,2.8-2.4,2.6c-1.5-0.2-1.9,0.8-1.9,2.1c0,2.3,0.1,4.6,0,7c0,0.6-0.8,1.1-1.2,1.7c-0.5-0.5-1.5-1.1-1.5-1.6
			c-0.2-2.2-0.1-4.5,0-6.7c0.1-1.6-0.6-2.4-2.2-2.4c-1.8,0-3.7,0-5.5,0c-1.8,0-2.4,0.8-2,2.6c1.3,7.1,2.5,14.1,3.7,21.2
			c1.5,8.2,3,16.3,4.4,24.5c1.6,8.9,3.1,17.8,4.6,26.6c2,11.4,4.2,22.7,6.2,34.1c1.5,8.6,2.8,17.2,4.3,25.7
			c1.5,8.5,3.1,16.9,4.6,25.4c1.5,8.5,2.9,17,4.4,25.5c2,11.4,4.1,22.7,6.2,34.1c1.5,8.5,2.9,17,4.3,25.5c0.8,4.4,1.6,8.8,2.3,13.2
			c0.3,1.7,1.5,1.6,2.7,1.6c4.6,0,9.1,0,13.7,0c6.7,0,13.4,0,20.2,0c0.8,0,1.6,0.6,2.4,0.9c-0.4,0.8-0.9,1.5-1.2,2.3
			c-0.4,0.7-0.9,1.5-0.9,2.3c0,19.4,0,38.7-0.1,58.1c0,2.1,1.2,3.3,2.7,4.2c3.2,1.9,4.3,4.5,3.9,8.2c-0.3,3.2,0.1,6.4-0.1,9.6
			c-0.2,2.4,0.9,3.1,3.1,3c3.4-0.1,6.7,0.1,10.1-0.1c2.2-0.1,2.8,0.7,2.7,2.8c-0.1,2.2,0,4.3-0.1,6.5c-0.1,1.7,0.6,2.3,2.3,2.3
			c2.8,0,5.6,0,8.4,0c14.2,0,28.3,0,42.5,0c0.5,0,1-0.1,1.4,0c1,0.3,2.8,0.8,2.8,1.3c0,1.9-1.7,1.2-2.7,1.2
			c-237.9,0-475.8,0-713.7,0c-29.7,0-59.4,0-89,0c-0.8,0-1.6,0-2.5,0c0-0.9,0-1.5,0-2.5c2.6,0,5,0,7.5,0c5.4,0,10.9-0.1,16.3,0
			c2.2,0.1,3-0.8,2.9-2.9c-0.1-1.8,0-3.7,0-5.5c0-1.3-0.2-2.7,1.5-3.4c0.4-0.2,0.6-1.2,0.6-1.9c0-15.8,0-31.5,0-47.3
			c0-0.9-0.8-1.7-1.2-2.6c-0.2-0.4-0.7-0.9-0.6-1.1c0.2-0.4,0.8-0.8,1.2-0.9c0.5-0.2,1.1-0.1,1.7-0.1c20.8,0,41.6,0,62.4,0
			c0.8,0,1.7,0.5,2.5,0.8c-0.5,0.6-1.1,1.1-1.5,1.8c-0.4,0.6-0.7,1.3-0.7,1.9c-0.1,8.2-0.1,16.5,0,24.7c0,0.7,0.7,1.4,1,2.1
			c0.4-0.7,0.8-1.4,1.2-2c0.4-0.7,0.8-2,1.4-2.1c1-0.1,2.5,0.1,3.2,0.7c2,1.8,2.9,1.8,4.9-0.1c0.7-0.6,2-0.7,3-0.6
			c0.4,0,1,1.2,1,1.8c0,1.8,0.7,2.6,2.6,2.6c2,0,2.3-1.2,2.3-2.9c0-5.6,0-11.2-0.1-16.8c0-2,0.5-2.9,2.7-2.9c6.3,0.1,6,1.2,6.1-6
			c0-1.1,0.9-2.2,1.3-3.3c0.3-0.9,0.7-1.8,0.7-2.6c0-1.4,0.5-1.9,1.9-1.8c1.3,0.1,2.6,0.1,3.8,0c2.2-0.1,4.1-0.2,3.8,2.9
			c0,0.5,1.4,1.4,2.2,1.5c0.6,0,1.6-1,1.8-1.7c0.3-1.2,0.2-2.5,0.1-3.8c-0.1-1.7,0-3.2,1.8-4c0.4-0.2,0.8-1,0.8-1.6
			c0.2-4.2,1.5-8,3.5-11.6c0.3-0.5,0.3-1.3,0.1-1.7c-0.6-1.5-1.2-3-2.1-4.3c-0.9-1.4-0.5-2.3,0.4-3.4c1-1.1,1.9-1.4,3.4-0.9
			c1.6,0.7,3.3,1.1,5.2,1.7c3.2-1.3,6.9-2.8,10.5-4.3c0.5-0.2,1.2-0.8,1.2-1.3c0.1-0.4-0.5-1.2-0.9-1.4c-1.9-0.7-1.4-2.3-1-3.5
			c0.2-0.6,1.6-1,2.5-1c2.7-0.1,5.4-0.2,8.2,0c1.1,0.1,2.1,0.9,3.2,1.1c0.7,0.1,1.6,0.1,2.1-0.3c7.8-5.7,15.6-11.4,23.4-17.1
			c0.4-0.3,0.9-0.6,1.5-1c0.9,1.8,0.4,2.9-1,3.9c-8.4,6.1-16.7,12.3-25.1,18.4c-0.6,0.4-1,1.1-1.5,1.7c0.6,0.4,1.2,1,1.9,1.2
			c9.7,3.2,15.5,9.9,18.2,19.6c0.3,0.9,0.2,1.9,0.3,2.9c0.1,0.7,0.1,1.8,0.5,2c3.2,1.9,1.9,5,2.2,7.7c0.1,0.9,0.4,2,1,2.4
			c1.5,1,3.2,0.1,3.1-1.8c-0.1-2.2,0.9-2.6,2.7-2.5c1.6,0.1,3.2,0,4.8,0c1.4,0,2.1,0.5,2,2c-0.1,2.1,0.7,2.7,2.8,2
			c2.1-0.7,4.3-1.2,6.5-1.5c0.6-0.1,1.2,0.5,1.9,0.8c-0.5,0.5-0.8,1.4-1.4,1.6c-1.7,0.6-3.5,0.9-5.3,1.3c-2.2,0.5-2.7,1.6-2.4,5.4
			c0.1,2.1,1.4,2.2,3,2.2c5.9,0.1,5.9,0.1,6.2,5.9c0.1,1.3,0.4,2.2,1.9,2.2c7.4,0,14.7,0,22.1,0c0.3,0,0.5-0.2,1.3-0.5
			c-2.9-2.1-5.4-4.1-8-6c-4.8-3.5-9.7-7.1-14.6-10.5c-1.3-1-2.1-1.5-0.5-3.3c2.1-2.2,3.5-5,5.1-7.3c-1.1-0.7-2.2-1-2.9-1.7
			c-9.7-11.6-16.8-24.6-20.3-39.4c-1.4-5.7-2.1-11.6-3.1-17.4c-0.5-2.7,1-4.6,2.7-6.3c0.4-0.4,1.8-0.1,2.4,0.3
			c8.5,6.1,16.9,12.3,25.4,18.4c5.4,3.9,10.9,7.9,16.3,11.9c0.9,0.7,1.7,1.6,2.8,2.6c0.5-0.7,1-1.6,1.7-2.7
			c-0.8-0.3-1.3-0.4-1.7-0.6c-2-1.1-3.5-2.3-3.4-5.2c0.3-5.8,0.1-11.7,0.1-17.5c0-1.3-0.2-2.6,1.4-3.2c0.4-0.2,0.8-1.2,0.7-1.8
			c-0.4-7.4,0.3-14.7,2.8-21.7c0-0.1-0.1-0.3-0.3-0.9c-2.5,1.8-4.9,3.5-7.3,5.2c-8.7,6.4-17.5,12.9-26.2,19.4
			c-0.3,0.2-0.6,0.7-1,0.7c-0.6,0-1.3-0.3-1.9-0.4c0.2-0.6,0.2-1.4,0.6-1.7c6.8-5.1,13.6-10.1,20.4-15.1c5.7-4.2,11.5-8.4,17.1-12.7
			c1.1-0.8,1.9-2.1,2.7-3.3c7.4-12.2,17.8-20.3,31.7-23.7c4.2-1,8.6-1.6,12.9-2c2.4-0.2,4.9,0.2,7.3,0.7c1.9,0.4,2.8-0.3,3.5-1.9
			c2.7-6.3,5.5-12.6,8.3-18.8c4.2-9.6,8.4-19.1,12.6-28.7c4.6-10.4,9.1-20.7,13.6-31.1c4.5-10.3,9.1-20.5,13.7-30.8
			c1.5-3.4,3-6.7,4.4-10.1c1-2.4,2.5-1,3.8-0.7c1.6,0.4,1.1,1.6,0.7,2.7c-6,13.6-11.9,27.1-17.9,40.7c-4.8,10.9-9.7,21.9-14.5,32.8
			c-6,13.6-12,27.3-18,41c-0.5,1.2-1.1,2.3-1.6,3.5c-1.2,2.5-1.1,2.9,1.5,3.8c9.7,3.2,17.6,9,23.9,16.9c5.6,7.1,9.4,15,10.4,24.1
			c0.4,4,0.3,8,0.6,11.9c0.1,0.8,0.5,2,1.1,2.3c1.6,0.7,1.6,1.8,1.6,3.1c0,7.3,0,14.6,0,21.8c0,2.8,0.4,3.1,3.2,3.1
			c22.3,0,44.6,0,67,0c0.7,0,1.3,0.5,2,0.8c-0.4,0.5-0.7,1.1-1,1.6c-0.4,0.8-1.1,1.6-1.1,2.4c-0.1,14-0.1,28,0,42
			c0,0.9,0.9,1.7,1.2,2.6c0.4,1.1,0.9,2.3,0.9,3.4c0,2.2-0.1,4.1,3.1,3.7c0.3,0,1.2,1.3,1.2,2c0.1,11.8,0,23.5,0,35.3
			c0,3.1,0.1,3.2,3.3,3.2c12.3,0,24.6,0,37,0c2.1,0,2.8-0.7,2.7-2.8c-0.1-4.1,0-8.2-0.1-12.2c0-1.6,0.7-2.5,1.7-3.7
			c3.2-3.7,7.1-4.5,11.6-4c2,0.2,4,0,6,0c3.3,0,3.5-0.2,3.5-3.6c0-8.2,0-16.5,0-24.7c0-10.5,0-21-0.1-31.4c0-1.1-0.9-2.2-1.3-3.3
			c-0.3-0.7-0.6-1.5-0.5-2.1c0.1-0.4,1.1-0.7,1.8-0.7c5.9,0,11.8-0.1,17.8,0c2.3,0.1,3.2-0.9,3.5-3c1.9-11.5,3.9-23,5.9-34.4
			c1.9-10.8,4-21.6,5.9-32.5c1.5-8.6,2.9-17.3,4.4-25.9c1.4-8.2,3-16.5,4.5-24.7c1.6-9.1,3.1-18.2,4.7-27.3
			c1.9-10.9,4-21.8,5.9-32.7c1.5-8.3,2.8-16.7,4.3-25c1.6-9,3.2-18,4.8-27.1c1.5-8.2,2.8-16.5,4.3-24.7c0.4-2.2-0.4-2.7-2.3-2.7
			c-3.6,0.1-7.2,0-10.8,0.1c-1.7,0-2.5-0.4-2.5-2.3c0.1-13.8,0-27.5,0-41.3c0-2.1,1.1-2.3,2.7-2.3c8.2,0,16.5,0,24.7,0.1
			c2.2,0,3.7-0.5,4-3c0.2-1.3,0.8-2.6,1.2-3.9c0.5-1.5,0.2-2.5-1.6-2c-1.7,0.4-2.5-0.2-2.5-1.9c0-1.8-1.1-2.1-2.6-1.8
			c-3,0.7-5.9,1.3-8.9,1.9c-0.5,0.1-1.4,0.4-1.6,0.2c-2.8-3.4-5.9-0.7-8.7-0.3c-5.3,0.8-10.5,2.2-15.7,3.3c-7.3,1.6-14.6,3.2-22,4.7
			c-4.7,1-9.4,2-14,3c-7.7,1.6-15.5,3.3-23.2,4.9c-4.9,1-9.8,2-14.8,3.1c-7.4,1.6-14.8,3.3-22.2,4.8c-6.6,1.4-13.3,2.8-19.9,4.2
			c-3.8,0.8-7.7,1.6-11.4,2.6c-0.6,0.1-1,1.1-1.5,1.6c-0.2,0.3-0.3,0.8-0.6,0.9c-1.6,0.5-1.3,1.6-1,2.7c0.4,1.4-0.2,2.3-1.6,2.7
			c-4.5,1.2-4.5,1.3-3.5,5.9c0.1,0.4,0.2,0.8,0.3,1.3c-1.9,0.6-1.9,1.9-1.7,3.7c0.8,6.4-1.4,11.4-7.4,14.4c-1.2,0.6-1.3,1.1-0.8,2.7
			c0.6,1.9,1.6,2.5,2.9,3.4c2,1.5-0.5,2.6-0.6,3.9c0,0.4-1.6,1.1-2.2,0.9c-6.2-2.7-12.4-5.6-18.6-8.4c-2.4-1.1-4.8-2.1-7.2-3
			c-1.3-0.5-1.5-1.2-1.1-2.4c1.3-3.3,1.3-3.3,4.9-2.3c1.3-0.5,2.2-0.8,3-1.2c0.4-0.2,0.9-0.9,0.8-1.2c-0.4-1.2-0.7-3.1-1.5-3.5
			c-1.7-0.8-2.1-1.9-2.3-3.5c-0.4-3.1-1-3.6-4.1-2.6c-2.3,0.7-3.7,0.7-3.9-2.2c0-0.4-0.8-0.8-1.2-1.1c-0.2-0.1-0.6,0-0.7-0.1
			c-1.1-2.7-3.2-1.8-5.4-1.1c-0.9-3.9-1.7-7.5-2.5-11.2c-1.9-8.7-3.6-17.5-5.6-26.2c-0.5-2.3,0.5-3.1,2.4-3.4
			c11.5-2.4,23-4.7,34.4-7.1c11.3-2.4,22.6-5,33.9-7.4c9-1.9,18.1-3.6,27.2-5.5c11.3-2.4,22.6-5,33.9-7.4c9-1.9,18-3.7,26.9-5.6
			c9-1.9,17.9-3.9,26.9-5.8c7.8-1.7,15.6-3.3,23.4-4.9c10-2.1,20-4.2,30-6.3c11.2-2.4,22.4-5,33.6-7.4c13.2-2.8,26.4-5.4,39.6-8.2
			c11-2.3,22-4.8,32.9-7.1c9.4-2,18.9-3.9,28.3-5.9c9-1.9,18-4,27.1-6c9.1-1.9,18.3-3.8,27.4-5.7c7.4-1.6,14.8-3.2,22.2-4.8
			c1.9-0.4,3.7-1,5.6-1.2c2.2-0.2,3-1.5,3.9-3.2c6.2-12.2,12.5-24.4,18.8-36.6c6.3-12.1,12.6-24.2,19-36.2
			c2.8-5.3,5.7-10.5,8.6-15.7C698.8,86.5,699.6,86.5,700.4,86.5z M103.9,637.3c-1,1.6-2.1,3.3-2.8,4.4c1.2,0.1,2.5,0,3.6,0.4
			c11.7,5,24,7.7,36.7,7.8c7.9,0.1,15.9-1.1,23.8-2c2.2-0.3,4.6-1,6.4-2.4c1.9-1.5,3.1-3.9,4.9-6.2c-16.2-11.8-32.1-23.4-48.3-35.2
			c-0.3,0.6-0.8,1.4-1.1,2c3.5,2.5,6.7,4.8,9.9,7.1c11.6,8.4,23.2,16.9,34.8,25.4c0.5,0.4,1.3,1.5,1.1,1.7c-1.2,1.9-2.2,4.2-4.8,4.7
			c-5.2,0.9-10.4,2.1-15.6,2.6c-15.4,1.3-30.4-1-44.9-6.5C105.8,640.3,104,639.6,103.9,637.3c2.1,0.5,3.3-0.8,4.4-2.3
			c5.6-7.7,11.2-15.3,16.7-23.1c0.8-1.1,1.1-2.6,1.6-3.9c-0.3-0.1-0.5-0.3-0.8-0.4c-0.7,0.7-1.4,1.4-2,2.3c-4,5.5-8,11.1-12,16.7
			C109.2,630.2,106.5,633.7,103.9,637.3z M747,273.7c-0.4-7.2-0.8-15.8-1.5-24.3c-0.7-8-1.8-16-3-23.9c-0.5-3.3-1.4-6.5-2.3-9.8
			c-0.2-0.9-1.1-2.2-1.8-2.2c-2.7-0.1-5.6-0.3-7.8,2c-5.7,5.9-11.2,11.8-17.1,17.5c-3.9,3.8-6.9,7.7-7.7,13.5
			c-0.6,4.1-0.8,7.2,2,10.7c9.2,12.1,18,24.6,27,36.9c3.9,5.3,4.3,5.4,9.9,1.8c0.7-0.5,1.4-1.6,1.5-2.5
			C746.4,287.3,746.7,281.2,747,273.7z M502.1,510c0.2-0.2,0.3-0.4,0.5-0.6c-1.1-5.8-2.2-11.6-3.2-17.4c-1.5-8.6-2.9-17.1-4.3-25.7
			c-2.1-12.1-4.3-24.2-6.4-36.2c-0.4-2.1-1.2-3.4-3.8-3.3c-7,0.2-13.9,0.1-20.9,0.1c-3.3,0-3.5,0.3-3.5,3.6c0,13.8,0,27.7,0,41.5
			c0,2.1,0.8,3.5,2.3,4.9c12.4,10.6,24.8,21.3,37.2,32C500.7,509.3,501.4,509.6,502.1,510z M488.6,589.7c8.5,0,17,0,25.4,0
			c1.8,0,2.7-0.4,2.3-2.5c-0.5-2-0.8-4.1-1.1-6.1c-1.9-11.3-3.9-22.6-5.8-33.9c-0.4-2.4-1.2-2.7-3.5-1.7c-7.8,3.3-15.5,6.6-23.3,9.9
			c-6.5,2.7-12.9,5.5-19.4,8.2c-2,0.8-2.8,2.1-2.8,4.4c0.2,6.2,0.1,12.5,0.1,18.7c0,2.9,0.2,3.1,3.2,3.1
			C472,589.7,480.3,589.7,488.6,589.7z M8.3,592.6c-12-0.4-22.5,10.2-22.5,22.5c0,11.9,10.6,22.5,22.6,22.5
			c12.3,0,22.5-10.3,22.5-22.6C30.9,602.4,21,592.6,8.3,592.6z M460.5,383.8c0,10.4,0,20.8,0,31.2c0,1.6,0.4,2.6,2.2,2.6
			c7.1,0,14.2,0,21.4,0c1.8,0,2.2-0.8,1.9-2.4c-1.8-9.8-3.5-19.6-5.3-29.4c-1.6-9-3.2-18-4.9-27.1c-1.1-6.4-2.3-12.7-3.5-19.1
			c-0.1-0.6-0.6-1-0.8-1.6c-0.5,0.3-1.1,0.6-1.5,1c-2.7,3.4-5.5,6.7-8,10.2c-0.9,1.2-1.5,2.9-1.5,4.3
			C460.5,363.6,460.5,373.7,460.5,383.8z M412.8,555.7c0-5.8-0.1-11.7,0-17.5c0-1.7-0.5-2.5-2.3-2.5c-7,0-14.1,0-21.1,0
			c-1.6,0-2.2,0.7-2.4,2.3c-0.4,3.2-1,6.3-1.5,9.4c-2.4,13.4-4.9,26.8-7.3,40.2c-0.1,0.5,0,1.3,0.3,1.5c0.3,0.2,1,0.1,1.5-0.1
			c1.5-0.6,3-1.4,4.6-2c8.6-3.6,17.2-7.2,25.8-10.8c1.7-0.7,2.5-1.8,2.5-3.8C412.7,566.7,412.8,561.2,412.8,555.7z M412.8,485.8
			c0-12.4,0-24.8,0-37.2c0-1.1-0.2-2.6-0.8-3.3c-1.7-1.8-3.6-3.4-5.6-4.9c-1.1-0.9-2-0.7-2.3,1c-1.7,9.7-3.4,19.5-5.1,29.2
			c-1.5,8.6-3,17.3-4.5,25.9c-1.6,8.9-3.2,17.7-4.8,26.6c-0.5,2.7-0.1,3.1,2.7,3.1c5.8,0,11.5,0,17.3,0c2.8,0,3.2-0.3,3.2-3.2
			C412.8,510.6,412.8,498.2,412.8,485.8z M567.3,624.3c0-9.6,0-19.2,0-28.8c0-2.2-0.6-3-2.9-3c-4,0.1-8,0-12,0c-6,0-5.5-0.8-5.5,5.6
			c0,17.9,0,35.8,0,53.8c0,3.6,0,3.7,3.5,3.7c4.5,0,9,0,13.4,0c3.2,0,3.3-0.1,3.3-3.4C567.3,642.9,567.3,633.6,567.3,624.3z
			 M499.4,623.9c0-9.5,0-19,0-28.6c0-1.6-0.1-2.9-2.2-2.8c-5.3,0.1-10.6,0-15.8,0c-1.7,0-2.2,0.8-2.2,2.4c0,19.4,0,38.7,0,58.1
			c0,2,0.8,2.6,2.8,2.6c4.8-0.1,9.6,0,14.4,0c3,0,3.1-0.1,3.1-3.1C499.4,643,499.4,633.5,499.4,623.9z M408.9,624.1
			c0-9.5,0-19,0-28.5c0-1.4,0-3-1.9-2.9c-5.4,0.2-11-1.1-16.2,1.7c-1.6,0.9-2.5,1.7-2.4,3.6c0.1,14.5,0,29.1,0.1,43.6
			c0,1.1,0.6,2.5,1.4,3.2c1.4,1.2,2,2.6,1.9,4.4c-0.1,1.2,0,2.4,0,3.6c-0.1,2,0.7,2.9,2.8,2.8c3.8-0.1,7.5,0,11.3,0
			c2.8,0,3.2-0.3,3.2-3.2C408.9,643,408.9,633.5,408.9,624.1z M476.8,624.1c0-9.4,0-18.9,0-28.3c0-3-0.2-3.2-3.3-3.2
			c-3.1,0-6.2,0-9.3,0c-3.5,0-3.6,0.1-3.6,3.7c0,12.1,0,24.3,0,36.4c0,1.4,0,2.9-2,2.8c-2-0.1-2.4,1-2.4,2.7c0.1,4.8,0.1,9.6,0,14.4
			c-0.1,2.4,0.9,3,3.1,3c4.8-0.1,9.6,0,14.4,0c2.9,0,3.1-0.3,3.1-3.2C476.8,643,476.8,633.5,476.8,624.1z M501.8,623.9
			c0,9.4,0,18.9,0,28.3c0,0.6-0.2,1.2,0.1,1.7c0.4,0.7,1,1.2,1.5,1.7c0.5-0.6,1.4-1.1,1.5-1.8c0.3-1.1,0.2-2.4,0.1-3.6
			c-0.4-2.6,0.8-4.3,2.8-5.9c4.1-3.1,8-6.4,12-9.6c1.5-1.2,2-2.6,2.1-4.5c0.8-12.1-2.1-23.8-4.2-35.5c-0.3-1.7-1.2-2.2-2.8-2.1
			c-3.4,0.1-6.7,0.1-10.1,0c-2.2-0.1-3.1,0.6-3.1,3C501.9,605,501.8,614.4,501.8,623.9z M245.9,607c0-6.8,0-13.6,0-20.4
			c0-2.9-0.3-3.2-3.1-3.2c-4.6,0-9.3,0-13.9,0c-2.8,0-3.1,0.4-3.1,3.2c0,12.2,0,24.5,0,36.7c0,1.9,0.6,2.9,2.6,2.7
			c1.5-0.1,2.2,0.5,2.1,2.1c-0.2,2,0.9,2.6,2.8,2.5c3-0.1,6.1,0,9.1,0c3.3,0,3.6-0.2,3.6-3.5C245.9,620.4,245.9,613.7,245.9,607z
			 M-68.6,652.3c0-7.7-0.1-15.3,0-23c0-2.2-0.5-3.2-3-3.1c-3.9,0.2-7.8,0.2-11.7,0c-2.2-0.1-3,0.6-3,2.8c0.1,15.6,0.1,31.2,0,46.7
			c0,1.8,0.7,2.4,2.4,2.4c4.2-0.1,8.5-0.1,12.7,0c2,0.1,2.6-0.7,2.6-2.7C-68.7,667.8-68.6,660.1-68.6,652.3z M-106.9,652.2
			c0,7.9,0,15.8,0,23.7c0,1.6,0.4,2.4,2.1,2.3c4.5-0.1,8.9,0,13.4,0c1.5,0,2.2-0.5,2.2-2.1c0-15.7,0-31.5,0-47.2
			c0-1.8-0.7-2.6-2.6-2.6c-4,0.1-8,0-12,0c-3,0-3.2,0.1-3.2,3.1C-106.9,637-106.9,644.6-106.9,652.2z M-109.2,652.4
			c0-7.8,0-15.5,0-23.3c0-2-0.7-2.9-2.8-2.9c-4,0.1-8,0-12,0c-2.9,0-3.2,0.3-3.2,3.1c0,15.3,0,30.7,0,46c0,2.2,0.9,2.8,2.8,2.7
			c4.2-0.1,8.3-0.1,12.5,0c2.1,0.1,2.7-0.8,2.7-2.8C-109.3,667.7-109.2,660.1-109.2,652.4z M461,487.7c-0.3,1-0.5,1.2-0.5,1.4
			c0,11.6,0,23.2,0,34.8c0,2,1.2,2.3,2.8,2.3c6.3,0,12.6,0,19,0c6.7,0,13.4,0,20.1,0c0.6,0,1.3-0.4,1.9-0.6c-0.3-0.6-0.6-1.2-1-1.7
			c-0.7-0.8-1.5-1.4-2.3-2.1c-11.6-9.9-23.1-19.9-34.7-29.8C464.7,490.6,463,489.3,461,487.7z M266.5,607.1c0-7,0-13.9,0-20.9
			c0-2-0.6-2.9-2.7-2.9c-4.3,0.1-8.6,0.1-12.9,0c-1.8,0-2.6,0.8-2.6,2.6c0,14,0,28,0,42c0,2.1,0.9,2.8,2.9,2.8
			c4.2-0.1,8.3-0.1,12.5,0c2.3,0.1,2.9-0.9,2.9-3C266.4,620.8,266.5,613.9,266.5,607.1z M203.2,604.6c0,6.4,0,12.8,0,19.2
			c0,1.4,0.3,2.3,1.9,2.3c5.3,0,10.7,0,16,0c1.4,0,2-0.6,2-2c0-12.8,0-25.5,0-38.3c0-1.7-0.7-2.4-2.4-2.4c-4.9,0.1-9.7,0.1-14.6,0
			c-2.2-0.1-3,0.7-2.9,2.9C203.3,592.3,203.2,598.5,203.2,604.6z M732.5,188.7c-0.1-0.5-0.2-1.4-0.5-2.2c-2.1-6.3-4.2-12.5-6.4-18.7
			c-0.6-1.6-1.4-3.5-2.8-4.4c-1.8-1.2-4.2-1-6.3,0.2c-2.2,1.3-4.6,2.3-6.9,3.3c-4.1,1.9-4,1.9-3.1,6.3c2.2,10.4,4.3,20.9,6.4,31.3
			c0.5,2.3,1.1,2.6,3.2,1.3c3.7-2.4,7.3-5.2,11.2-7.2C731.3,196.4,732.2,192.9,732.5,188.7z M343.3,624.1c0,9.1,0,18.2,0,27.3
			c0,4.1,0.2,4.3,4.3,4.2c1.6,0,2.6-0.6,2.8-2.3c0.2-1.3,0.3-2.5,0.5-3.8c2.1-11.5,4.2-23,6.2-34.5c1.2-6.6,2.2-13.2,3.5-19.8
			c0.4-2.2-0.3-2.7-2.3-2.7c-4.1,0-8.2,0.1-12.2,0c-2.2,0-2.9,0.8-2.9,3C343.3,605,343.3,614.6,343.3,624.1z M436.4,517
			c5.5,0,11,0,16.5,0c1.7,0,2.7-0.5,2.7-2.5c-0.1-5-0.1-10.1,0-15.1c0-1.9-0.8-2.5-2.6-2.5c-10.9,0-21.9,0-32.8,0
			c-1.9,0-2.6,0.7-2.6,2.6c0.1,5,0.1,9.9,0,14.9c0,2,0.8,2.7,2.7,2.7C425.7,516.9,431,517,436.4,517z M431.8,562.6
			c6.5,1.3,13.7-1.1,20.8-4.5c2-1,3.3-2.1,3.1-4.7c-0.3-2.9-0.1-5.9,0-8.9c0.1-1.8-0.7-2.4-2.4-2.4c-11.1,0-22.2,0-33.3,0
			c-1.8,0-2.3,0.8-2.3,2.5c0.1,5.1,0.1,10.2,0,15.3c0,1.9,0.8,2.6,2.6,2.6C423.5,562.5,426.9,562.6,431.8,562.6z M436.5,494.6
			c2.6,0,5.3,0,7.9,0c2.7,0,5.4-0.1,8.1,0c2.2,0.1,3.3-0.6,3.1-3c-0.2-1.8,0.1-3.7-0.1-5.5c-0.1-1.4-0.2-3.4-1.1-4.1
			c-3.4-2.6-5.7-6.6-10.1-7.7c-0.1,0-0.2,0-0.2,0c-8,0-16,0-23.9,0c-2,0-2.6,0.8-2.6,2.8c0.1,4.9,0.1,9.7,0,14.6
			c-0.1,2.2,0.7,3,2.9,2.9C425.8,494.5,431.2,494.6,436.5,494.6z M447.3,302.4c10.8,0.5,20.5-9.4,20.4-20.1
			c-0.1-11-9.2-20.5-20.2-20.4c-11.3,0.1-20.1,8.7-20.3,20.2C426.9,292.9,436,302.7,447.3,302.4z M442.7,449c3.4,0,6.9,0,10.3,0
			c1.9,0,2.7-0.7,2.7-2.7c-0.1-4.8-0.1-9.6,0-14.4c0.1-2.4-0.9-3-3.1-3c-9.7,0.1-19.3,0-29,0c-6.8,0-5.9-0.8-5.8,6.1
			c0,1.4,0.6,3,1.5,4c2.4,2.4,5.2,4.5,7.7,6.8c2.5,2.3,5.1,3.6,8.6,3.1C437.9,448.8,440.3,449,442.7,449z M418.6,403.7
			c0.6,0.2,0.9,0.4,1.2,0.4c11.2,0,22.4,0,33.6,0c1.6,0,2.3-0.9,2.3-2.4c0-5.1,0-10.2,0-15.3c0-1.7-0.8-2.4-2.5-2.4
			c-5.8,0-11.5,0-17.3,0.1c-1.1,0-2.4,0.6-3.1,1.4c-4.5,5.3-8.8,10.7-13.1,16.2C419.2,402.1,419,402.8,418.6,403.7z M418.9,358.4
			c0.7,0.2,1.1,0.4,1.6,0.4c6.8,0,13.6,0.1,20.4,0c0.8,0,1.7-0.5,2.2-1.1c3-3.6,6-7.3,8.9-10.9c1.2-1.5,2.5-3,3.3-4.7
			c1.1-2.3,0.1-3.6-2.5-3.6c-1.3,0-2.6,0-3.8,0c-7.9,0-15.8,0-23.7,0c-1.8,0-2.9,0.3-3.2,2.5C421.2,346.7,420,352.4,418.9,358.4z
			 M701,125.6c-0.1-0.3-0.1-0.5-0.2-0.8c-1.6,0.7-4,1.1-4.7,2.3c-3.8,6.6-7.2,13.5-10.8,20.3c-0.7,1.3-0.7,2.5,0.4,3.7
			c0.6,0.6,1.2,1.3,1.6,2.1c0.8,1.4,2,1.7,3.5,1.3c1.2-0.3,2.3-0.6,3.5-0.9c5.6-1.5,11.2-3.1,16.9-4.5c4.1-1,5.2-3,3.2-6.8
			c-2.4-4.5-5-8.9-7.3-13.5C705.8,126.2,704.2,124.7,701,125.6z M411.1,623.8C411.1,623.8,411.1,623.8,411.1,623.8
			c0,9.6,0.1,19.2,0,28.8c0,2.1,0.7,3,2.9,3c5-0.1,10.1-0.1,15.1,0c1.6,0,2.4-0.5,2.4-2.1c0-6.2,0-12.3,0-18.5
			c0-1.4-0.5-2.2-2.1-2.2c-3.1,0.1-6.2,0-9.4,0.1c-0.8,0-1.9,0.5-2.2,1c-0.9,1.8-2.4,2.2-3.7,1.5c-0.8-0.4-1.2-2.1-1.2-3.2
			c-0.1-12.2,0-24.3,0-36.5c0-0.5,0.1-1-0.1-1.4c-0.1-0.4-0.6-0.6-0.8-0.9c-0.3,0.3-0.7,0.6-0.8,1c-0.2,0.5-0.1,1.1-0.1,1.7
			C411.1,605.3,411.1,614.6,411.1,623.8z M385.5,641.3c0.3-0.9,0.5-1.3,0.5-1.7c0-13.7,0-27.5,0-41.2c0-1.5-0.7-1.8-2-1.2
			c-2,0.9-4.1,1.5-5.9,2.6c-1.1,0.7-2,2.1-2.6,3.4c-0.4,0.9-0.3,2-0.5,3.1c-1.3,7.1-2.6,14.1-3.7,21.2c-0.2,1,0.4,2.5,1.2,3.3
			c1.3,1.5,3,2.6,4.6,3.8C379.7,636.7,382.5,638.9,385.5,641.3z M433.9,644.1c0,3,0,5.9,0,8.9c0,1.8,0.6,2.6,2.5,2.6
			c5-0.1,10.1-0.1,15.1,0c1.9,0,2.4-0.9,2.4-2.5c0-6,0-12,0-18c0-1.5-0.6-2.4-2.3-2.4c-5.1,0.1-10.2,0.1-15.4,0
			c-1.8,0-2.4,0.8-2.3,2.5C434,638.2,433.9,641.2,433.9,644.1z M436.6,417.5c5.5,0,11,0,16.5,0c1.8,0,2.7-0.6,2.5-2.5
			c-0.1-2.1,0-4.3,0-6.5c0-1.5-0.7-2.2-2.2-2.2c-11.2,0-22.4,0-33.5,0c-1.6,0-2.3,0.7-2.3,2.3c0,2.1,0.1,4.2,0,6.2
			c-0.1,2,0.7,2.7,2.7,2.6C425.7,417.5,431.1,417.5,436.6,417.5z M502.8,536.7c0-0.2,0-0.4,0-0.6c-0.7-0.2-1.4-0.4-2.1-0.4
			c-12.6,0-25.3,0-37.9,0c-1.6,0-2.3,0.6-2.3,2.3c0.1,4.6,0,9.3,0,13.9c0,2.2,0.6,2.5,2.6,1.7c10.7-4.6,21.4-9.1,32.1-13.6
			C497.8,538.8,500.3,537.8,502.8,536.7z M453.9,620c0-2.6,0-5.3,0-7.9c0-1.4-0.4-2.1-1.9-2.1c-5.4,0-10.7,0-16.1,0
			c-1.4,0-2,0.6-2,2c0,5.4,0,10.7,0,16.1c0,1.8,0.8,2.3,2.5,2.3c5-0.1,9.9-0.1,14.9,0c1.9,0,2.6-0.6,2.6-2.5
			C453.8,625.3,453.9,622.7,453.9,620z M436.4,584.9c5.5,0,11,0,16.6,0c1.6,0,2.7-0.4,2.7-2.2c0-4.6,0-9.1,0-13.7
			c0-1.5-0.7-2-2.2-1.3c-2.5,1.1-5,2.2-7.5,3.2c-8.8,3.8-17.6,7.5-26.4,11.3c-0.7,0.3-1.2,1.1-1.7,1.7c0.8,0.3,1.6,1,2.4,1
			C425.7,585,431,584.9,436.4,584.9z M543.9,649.5c0.2,0,0.4,0,0.6,0c0.1-1.3,0.3-2.7,0.3-4c0-3.6-0.1-7.2-0.1-10.8
			c0-13,0-26,0-39.1c0-2.2-0.7-3.1-2.9-3c-1.8,0.1-3.5,0.1-5.3,0c-2-0.1-2.8,0.6-2.4,2.7c0.9,4.4,1.7,8.7,2.5,13.1
			c1.9,10.8,3.6,21.7,5.5,32.5C542.6,643.8,543.3,646.6,543.9,649.5z M502.2,314.9c0-2.6,0-5.3,0-7.9c0-1.6-0.7-2.3-2.3-2.3
			c-1.7,0.1-3.4-0.1-5,0c-2.4,0.3-5.3-1.2-7.1,1.8c-0.2,0.3-1,0.2-1.6,0.2c-2.7,0.1-2.8,0.3-2.3,3c0.8,4.1,1.6,8.1,2.1,12.2
			c0.3,2.1,1.1,2.8,3.1,2.8c3.6,0,7.2-0.1,10.8,0c1.9,0.1,2.4-0.8,2.4-2.5C502.1,319.9,502.2,317.4,502.2,314.9z M491.8,302.4
			C491.8,302.4,491.8,302.4,491.8,302.4c2.6,0,5.3-0.1,7.9,0c1.6,0.1,2.4-0.5,2.4-2.2c0-3.8,0-7.7,0-11.5c0-1.5-0.7-2-2.1-2
			c-5.4,0-10.9,0-16.3,0c-1.5,0-1.9,0.7-1.9,2.1c0,3.7,0.1,7.3,0,11c0,2,0.8,2.7,2.8,2.5C487,302.3,489.4,302.4,491.8,302.4z
			 M403.8,286.8c-2.5,0-5,0.1-7.4,0c-1.9-0.1-2.8,0.5-2.7,2.6c0.1,3.3,0.1,6.7,0,10.1c-0.1,2.2,0.7,3,2.9,3c4.8-0.1,9.6-0.1,14.4,0
			c2.2,0.1,2.8-0.9,2.8-2.9c-0.1-3.4-0.1-6.9,0-10.3c0.1-1.9-0.7-2.6-2.5-2.5C408.8,286.8,406.3,286.8,403.8,286.8z M393.7,314.6
			C393.7,314.6,393.7,314.6,393.7,314.6c0,2.6,0,5.3,0,7.9c0,1.6,0.7,2.3,2.3,2.3c3.4,0,6.9,0.1,10.3-0.1c0.7,0,1.9-1,2-1.7
			c1-4.7,1.8-9.4,2.5-14.1c0.2-1.3-0.3-2-1.8-2.2c-0.9-0.1-1.8-0.9-2.7-1.3c-0.5-0.3-1.1-0.6-1.7-0.6c-2.9-0.1-5.9,0-8.9,0
			c-1.5,0-2.2,0.7-2.1,2.2C393.7,309.5,393.7,312.1,393.7,314.6z M443.9,607.7C443.9,607.7,443.9,607.7,443.9,607.7
			c2.6,0,5.3,0,7.9,0c1.6,0,2.1-0.6,2.1-2.2c0-3.6,0-7.2,0-10.8c0-1.5-0.6-2.2-2.2-2.2c-5.2,0-10.4,0-15.6,0c-1.5,0-2.2,0.5-2.2,2.1
			c0,3.7,0,7.4,0,11c0,1.5,0.6,2,2,2C438.6,607.6,441.2,607.7,443.9,607.7z M429,361.2c-2.9,0-5.8,0-8.6,0c-1.3,0-2.2,0.4-2.2,1.8
			c-0.2,5.5-0.4,11-0.5,16.5c0,0.4,0.4,1.1,0.8,1.3c1.5,1,5.8,0.1,7-1.3c4.4-5.4,8.8-10.8,13.1-16.2c0.3-0.4,0.5-1,0.7-1.4
			c-0.5-0.2-1.1-0.6-1.6-0.7C434.7,361.2,431.9,361.2,429,361.2z M431.6,620.3c0-2.7-0.1-5.4,0-8.1c0-1.6-0.6-2.1-2.1-2.1
			c-3.2,0.1-6.4,0-9.6,0c-1.6,0-2.3,0.7-2.2,2.3c0.1,5.2,0.1,10.4,0,15.6c0,1.9,0.8,2.6,2.6,2.5c3-0.1,5.9-0.1,8.9,0
			c1.9,0.1,2.5-0.7,2.5-2.5C431.5,625.4,431.6,622.8,431.6,620.3z M441.3,471.9c0.1-0.2,0.2-0.4,0.4-0.6c-0.7-0.7-1.3-1.5-2-2.2
			c-2.7-2.4-5.4-4.7-8.2-7c-3.6-3.1-7.2-6.3-10.9-9.3c-0.5-0.4-1.4-0.7-2.1-0.6c-0.3,0-0.8,1-0.8,1.5c-0.1,5.4-0.1,10.9,0.1,16.3
			c0,0.7,1,1.8,1.6,1.8C426.7,472,434,471.9,441.3,471.9z M231.8,333.3c5.4,0.4,9-4.4,9.2-8.7c0.2-4.5-4.3-8.9-8.9-9
			c-4.8-0.1-9.1,4.1-9.1,8.9C223.1,329.6,226.8,333.3,231.8,333.3z M436.6,526.2c5.4,0,10.7-0.1,16.1,0c2.4,0.1,3-1,3-3.2
			c0-2.2-0.4-3.2-2.9-3.2c-10.8,0.1-21.6,0.1-32.3,0c-2.5,0-2.9,1.1-2.9,3.2c0,2.2,0.6,3.2,3,3.2
			C425.9,526.1,431.3,526.2,436.6,526.2z M436.6,380.7c1.2,0.2,2,0.4,2.7,0.4c4.5,0,9.1-0.1,13.6,0c2.1,0,2.8-0.8,2.7-2.8
			c-0.1-4.7,0-9.4-0.1-14.1c0-1-0.7-1.9-1-2.8c-1.2,0.5-2.7,0.6-3.4,1.5c-3.1,3.4-5.9,7.1-8.8,10.7
			C440.5,375.7,438.7,378,436.6,380.7z M417.6,600.3C417.6,600.3,417.6,600.3,417.6,600.3c0,1.7,0.1,3.4,0,5
			c-0.1,1.6,0.5,2.4,2.2,2.4c3.3,0,6.5,0,9.8,0c1.3,0,2-0.4,2-1.8c0-3.8,0.1-7.7-0.1-11.5c0-0.6-1.2-1.7-1.8-1.8
			c-3.3-0.2-6.5-0.1-9.8-0.1c-1.6,0-2.2,0.9-2.2,2.4C417.7,596.8,417.6,598.5,417.6,600.3z M445.3,451.9c-2.6,0-5.3,0-7.9,0
			c-0.6,0-1.2,0.5-1.8,0.7c0.3,0.5,0.6,1.1,1,1.5c5.5,4.8,11.1,9.6,16.7,14.4c0.5,0.4,1.2,0.5,1.8,0.8c0.2-0.6,0.5-1.1,0.5-1.7
			c0-4.4,0-8.8,0-13.2c0-1.7-0.7-2.5-2.4-2.5C450.5,451.9,447.9,451.9,445.3,451.9z M439.3,336.1c4.6,0,9.1-0.1,13.7,0
			c2.4,0,2.7-1.3,2.7-3.2c0-1.8-0.1-3.2-2.4-3.1c-9.1,0.1-18.2,0-27.4,0c-2.1,0-2.7,1-2.6,4.4c0,1.9,1.2,1.9,2.6,1.9
			C430.3,336,434.8,336.1,439.3,336.1z M185.2,519.9c-1.8-6.9-21.7-21.4-27.4-20c-1.2,3.1,0.8,4.5,3,6c5.8,4,11.4,8.1,17,12.3
			C180,519.8,182,521.7,185.2,519.9z M436.6,539.9c5.4,0,10.9,0,16.3,0c1.5,0,2.7-0.1,2.8-2.1c0.1-2.1-1.2-2.1-2.7-2.1
			c-10.9,0-21.7,0-32.6,0c-1.4,0-2.8-0.1-2.8,2c0,2.1,1.4,2.2,2.9,2.2C425.9,539.8,431.2,539.9,436.6,539.9z M677,214.2
			c0.1,0.1,0.1,0.2,0.2,0.4c2.1-0.1,4.1-0.2,6.2-0.4c1.1-0.1,2.3-0.1,3.3-0.4c1.7-0.4,2.7-1.1,2.1-3.4c-1.3-4.8-2.1-9.6-3.1-14.5
			c-1.8-8.3-3.5-16.7-5.4-25c-0.1-0.5-1.3-1.3-1.8-1.2c-3.4,0.9-6.8,2.1-10.3,3.1c0,0.2,0.1,0.4,0.1,0.7c0.9,0,1.8,0,2.7-0.2
			c2-0.4,4-0.9,6-1.2c0.5-0.1,1.5,0.7,1.6,1.3c0.9,3.5,1.7,7.1,2.4,10.7c1.7,8,3.4,16,5.1,24c0.7,3.3,0.3,3.8-3.1,4.4
			C681.1,213,679.1,213.7,677,214.2z M142.9,532.3c0.1,0.3,0.2,0.5,0.2,0.8c1.2,0.2,2.4,0.4,3.7,0.6c9.6,1.6,14.2,13.4,8.6,21.3
			c-4.9,7-15.8,7.4-20.8,1.8c-0.4-0.5-1.3-0.5-2-0.7c0.2,0.7,0.1,1.7,0.5,2c1.9,1.4,3.8,3.2,6,3.8c5.6,1.6,11,1.1,15.4-3.1
			c4.2-4,6.2-8.7,5-14.8c-1.4-6.9-7.6-12.2-14.5-12.8C144.4,531.2,143.6,531.9,142.9,532.3z M152.3,499.2
			c-10.8-6.5-44.3,6.4-46.8,18c2-1.5,3.6-2.5,4.9-3.7c11.1-10.9,24.4-15.2,39.7-13.7C150.8,499.9,151.6,499.5,152.3,499.2z
			 M200.4,583.6c-0.3,0-0.6-0.1-0.9-0.1c-0.2,0.9-0.7,1.7-0.7,2.6c0,12.5-0.1,25.1,0,37.6c0,0.7,0.7,1.4,1,2.1c0.4-0.7,1-1.3,1-2
			c0.1-12.6,0.1-25.3,0-37.9C200.9,585.1,200.5,584.4,200.4,583.6z M70.4,612.1c0.3,0.1,0.7,0.2,1,0.4c7-9.7,14.1-19.4,21.1-29.1
			c-0.2-0.2-0.3-0.3-0.5-0.5c-1.1,0.7-2.5,1.1-3.2,2.1c-6,8.1-11.9,16.3-17.8,24.6C70.5,610.1,70.6,611.2,70.4,612.1z M118.7,591.6
			c-2.3,2.1-4.7,1.4-8.4-1.8c-0.5,0.4-0.9,0.7-1.4,1.1c-1.2-1.9-2.3-3.7-3.4-5.5c-0.3,0.1-0.6,0.3-0.9,0.4c0,0.6-0.1,1.3,0.1,1.9
			c2.5,7.7,11.2,11.6,18.6,8.2c0.5-0.2,0.7-1,1.1-1.5c-0.6-0.2-1.3-0.6-1.9-0.5c-1.4,0.2-2.8,0.5-4.6,0.9
			C118.2,593.6,118.4,592.9,118.7,591.6z M434.2,565.7c-0.1-0.2-0.1-0.5-0.2-0.7c-0.6-0.1-1.2-0.2-1.7-0.2c-3.1,0-6.2,0.1-9.3,0.1
			c-5.6,0-5.4-0.8-5.3,5.7c0,1.7,0.9,2,2.3,1.3c1.7-0.8,3.5-1.4,5.2-2.2C428.2,568.4,431.2,567,434.2,565.7z M417.7,589.1
			c0.8,0.2,1.7,0.6,2.5,0.6c10.9,0,21.9,0,32.8,0c0.8,0,1.7-0.4,2.8-0.6C454,587.4,420,587.2,417.7,589.1z M440,324.9
			c2.1,0,4.2,0,6.2,0c2.5,0,5,0.1,7.4-0.1c0.5,0,1.1-0.7,1.6-1.1c-0.5-0.4-1-1-1.5-1.2c-0.5-0.2-1.1-0.1-1.7-0.1c-7.5,0-15,0-22.5,0
			c-0.9,0-1.8-0.1-2.6,0.1c-0.7,0.2-1.2,0.9-1.7,1.4c0.6,0.3,1.3,0.9,1.9,0.9C431.4,324.9,435.7,324.9,440,324.9z M187.2,522.3
			c-0.8,1.6-2.6,2.8-0.1,4.2c0.3,0.1,0.4,0.7,0.5,1c3.4,7.4,4.5,15.2,4,23.3c0,0.7,0.5,1.4,0.7,2.2c0.5-0.7,1.3-1.4,1.4-2.1
			C194.4,540.9,192.5,531.5,187.2,522.3z M457.2,224.8c0.1,0.9,0.2,1.5,0.3,2c1.3,6.2,2.6,12.3,4,18.5c0.6,2.6,1.2,5.1,1.8,7.6
			c0.1,0.4,0.7,0.7,1.1,1c0.3-0.5,0.7-0.9,0.9-1.5c0.1-0.4-0.2-0.9-0.3-1.4c-0.8-3.7-1.5-7.3-2.3-11c-1.1-5.1-2.3-10.3-3.5-15.4
			c-0.1-0.5-0.7-0.9-1.1-1.3C457.8,224,457.4,224.5,457.2,224.8z M414.3,232.9c-0.4,0.1-0.8,0.1-1.2,0.2c0.1,1.2,0.1,2.5,0.3,3.7
			c1.1,5.5,2.3,10.9,3.5,16.3c0.7,3.1,1.4,6.2,2.2,9.3c0.1,0.5,0.9,0.8,1.3,1.1c0.2-0.5,0.6-1.1,0.6-1.6c-0.3-1.8-0.8-3.6-1.1-5.3
			c-1.4-6.9-2.9-13.9-4.3-20.8C415.3,234.8,414.7,233.9,414.3,232.9z M102.3,522.9c-1.1,1-2.3,1.6-2.8,2.7
			c-4.1,8.1-5.5,16.8-4.8,25.8c0,0.6,0.9,1.2,1.4,1.8c0.2-0.7,0.6-1.3,0.6-2c0.2-4.1-0.1-8.4,0.7-12.4
			C98.5,533.5,100.5,528.4,102.3,522.9z M478.5,301.6c0.3,0,0.6-0.1,0.9-0.1c0-4.6,0.1-9.1-0.2-13.7c0-0.4-2.5-0.8-3.9-0.9
			c-0.3,0-1,1.5-0.9,2.1c0.3,1.7,1,3.4,1.5,5C476.8,296.6,477.7,299.1,478.5,301.6z M129.9,550.2c0.7-3.1,0.9-6.1,2-8.6
			c1.2-2.6,3.2-4.9,5-7.6C131.7,534.4,125.9,546.2,129.9,550.2z M121,567c-2.8,0.2-5.5,0.4-8.2,0.6c0,0.3,0,0.5,0.1,0.8
			c1.3-0.1,2.7-0.3,4-0.2c0.6,0,1.2,0.7,1.9,1c-0.6,0.3-1.1,0.7-1.7,0.9c-1.7,0.5-3.4,0.8-5.1,1.4c-0.5,0.2-0.8,1.2-1.2,1.8
			c0.7,0.1,1.5,0.4,2.1,0.3c1.8-0.2,3.5-0.6,5.7-1.1C119.3,570.9,120.2,568.8,121,567z M416.7,297.2c0.3,0,0.6,0.1,0.9,0.1
			c0.2-0.5,0.5-0.9,0.7-1.4c0.7-2.4,1.4-4.7,1.9-7.1c0.1-0.6-0.5-1.9-0.7-1.9c-1,0.1-2.7,0.5-2.7,0.9
			C416.6,291,416.7,294.1,416.7,297.2z M412,432.8c0.2-0.2,0.5-0.3,0.7-0.5c0-1.2,0.2-2.4-0.1-3.5c-0.2-0.7-0.9-1.8-1.4-1.8
			c-1.4-0.1-2.8,0.2-4.1,0.5c-0.1,0-0.3,0.9-0.2,1C408.6,430,410.3,431.4,412,432.8z M404.5,588.5c0.1,0.3,0.1,0.7,0.2,1
			c2.3,0,4.7,0.1,7-0.1c0.5-0.1,0.9-1.6,1-2.5c0-0.3-1-1.3-1.3-1.2C409.1,586.6,406.8,587.6,404.5,588.5z M126.9,573.4
			c-0.4,0.1-0.8,0.1-1.2,0.2c-0.1,0.9-0.5,1.9-0.1,2.6c0.8,1.6,2,3,3.1,4.4c0.3,0.4,1,0.6,1.5,0.9c0.2-0.6,0.7-1.4,0.4-1.8
			C129.4,577.5,128.1,575.5,126.9,573.4z M412.8,411.9c-0.3-0.2-0.6-0.3-1-0.5c-0.9,1.3-1.9,2.5-2.8,3.8c-0.5,0.8-0.8,1.9,0.7,2.2
			c1.2,0.2,2.8,0.5,3-1.3C412.9,414.8,412.8,413.3,412.8,411.9z M465.1,324.8C465.1,324.8,465.1,324.9,465.1,324.8
			c1,0,1.9,0.2,2.8,0c0.5-0.1,0.9-0.6,1.4-1c-0.5-0.4-0.9-1.2-1.4-1.3c-1.9-0.1-3.8-0.1-5.7,0c-0.5,0-0.9,0.7-1.3,1.1
			c0.4,0.4,0.8,1,1.3,1.1C463.2,324.9,464.1,324.8,465.1,324.8z M225.5,312c2.6-0.4,4.8-0.7,7-1.2c0.3-0.1,0.8-0.7,0.8-1
			c-0.1-0.4-0.6-1.2-0.9-1.2c-2.4,0.4-4.8,0.9-7.1,1.5c-0.3,0.1-0.7,0.9-0.6,1.1C224.9,311.7,225.5,312,225.5,312z M461.4,334.7
			c1.2-1.3,2.4-2.7,3.8-4.2C461.1,328.9,460.1,329.9,461.4,334.7z M133.3,588.4c1.5-2.9,1.3-7.5,0-8.9
			C133.3,582.3,133.3,585.1,133.3,588.4z M417.9,387.4c0.3,0.2,0.6,0.3,0.9,0.5c0.6-1.1,1.3-2.2,1.9-3.4c-0.6-0.2-1.3-0.7-1.8-0.5
			C417.2,384.7,417.4,386,417.9,387.4z M103.6,591.9c-0.4,0.4-0.7,0.7-1.1,1.1c1.5,1.6,3,3.1,4.6,4.7c0.3-0.3,0.7-0.7,1-1
			C106.6,595.1,105.1,593.5,103.6,591.9z M101.4,581.6c-0.2,0-0.4-0.1-0.6-0.1c0,1.4,0,2.8,0,4.2c0.2,0,0.4,0,0.6,0
			C101.4,584.3,101.4,583,101.4,581.6z"/>
		<path class="st0" d="M229,362.9c-2.8-1.2-5.3-2.2-7.8-3.4c-1.2-0.6-2-0.8-2.6,0.7c-0.5,1.3-1.5,1.5-2.7,0.9
			c-1.2-0.6-2.4-1.1-1.5-2.8c0.7-1.3,0-1.8-1.2-2.3c-2.1-0.8-4.2-1.8-6.3-2.8c-1.3-0.6-1.9-1.3-1.1-2.9c1.7-3.3,2.9-6.7,4.4-10
			c0.7-1.5,1.1-2.4,3.3-1.3c6.2,3.1,12.7,5.6,19,8.3c0.9,0.4,1.8,0.7,2.5,1.3c0.4,0.4,0.6,1.4,0.4,1.9c-1.6,3.7-3.2,7.5-4.9,11.1
			C230.3,362.2,229.5,362.5,229,362.9z"/>
		<path d="M747,273.7c-0.3,7.4-0.5,13.6-0.9,19.7c-0.1,0.9-0.7,2-1.5,2.5c-5.5,3.6-5.9,3.6-9.9-1.8c-9-12.3-17.8-24.8-27-36.9
			c-2.7-3.6-2.6-6.6-2-10.7c0.9-5.7,3.8-9.7,7.7-13.5c5.9-5.7,11.4-11.6,17.1-17.5c2.2-2.3,5.1-2.1,7.8-2c0.6,0,1.5,1.3,1.8,2.2
			c0.9,3.2,1.8,6.5,2.3,9.8c1.2,8,2.3,15.9,3,23.9C746.2,258,746.5,266.5,747,273.7z"/>
		<path d="M502.1,510c-0.7-0.4-1.5-0.7-2-1.2c-12.4-10.7-24.8-21.4-37.2-32c-1.6-1.4-2.4-2.8-2.3-4.9c0.1-13.8,0-27.7,0-41.5
			c0-3.3,0.3-3.6,3.5-3.6c7,0,13.9,0.1,20.9-0.1c2.6-0.1,3.4,1.2,3.8,3.3c2.1,12.1,4.3,24.2,6.4,36.2c1.5,8.6,2.9,17.1,4.3,25.7
			c1,5.8,2.1,11.6,3.2,17.4C502.5,509.6,502.3,509.8,502.1,510z"/>
		<path d="M488.6,589.7c-8.3,0-16.6,0-25,0c-3,0-3.2-0.2-3.2-3.1c0-6.2,0.1-12.5-0.1-18.7c-0.1-2.3,0.8-3.5,2.8-4.4
			c6.5-2.7,12.9-5.4,19.4-8.2c7.8-3.3,15.5-6.6,23.3-9.9c2.3-1,3.1-0.7,3.5,1.7c1.9,11.3,3.9,22.6,5.8,33.9c0.4,2,0.6,4.1,1.1,6.1
			c0.5,2.1-0.4,2.5-2.3,2.5C505.6,589.7,497.1,589.7,488.6,589.7z"/>
		<path d="M8.3,592.6c12.7,0,22.5,9.8,22.5,22.4c0,12.4-10.2,22.6-22.5,22.6c-12,0-22.6-10.5-22.6-22.5
			C-14.2,602.8-3.7,592.2,8.3,592.6z"/>
		<path d="M460.5,383.8c0-10.1-0.1-20.2,0.1-30.2c0-1.5,0.6-3.1,1.5-4.3c2.5-3.5,5.3-6.8,8-10.2c0.4-0.4,1-0.7,1.5-1
			c0.3,0.5,0.7,1,0.8,1.6c1.2,6.3,2.3,12.7,3.5,19.1c1.6,9,3.2,18,4.9,27.1c1.8,9.8,3.5,19.6,5.3,29.4c0.3,1.6-0.1,2.4-1.9,2.4
			c-7.1,0-14.2,0-21.4,0c-1.8,0-2.2-0.9-2.2-2.6C460.6,404.6,460.5,394.2,460.5,383.8z"/>
		<path d="M412.8,555.7c0,5.5-0.1,11,0.1,16.5c0.1,2-0.8,3.1-2.5,3.8c-8.6,3.6-17.2,7.2-25.8,10.8c-1.5,0.6-3,1.4-4.6,2
			c-0.5,0.2-1.2,0.4-1.5,0.1c-0.3-0.2-0.4-1-0.3-1.5c2.4-13.4,4.9-26.8,7.3-40.2c0.6-3.1,1.1-6.3,1.5-9.4c0.2-1.6,0.8-2.3,2.4-2.3
			c7,0,14.1,0,21.1,0c1.8,0,2.3,0.8,2.3,2.5C412.7,544,412.8,549.8,412.8,555.7z"/>
		<path d="M412.8,485.8c0,12.4,0,24.8,0,37.2c0,2.8-0.3,3.2-3.2,3.2c-5.8,0-11.5,0-17.3,0c-2.7,0-3.2-0.4-2.7-3.1
			c1.6-8.9,3.2-17.7,4.8-26.6c1.5-8.6,3-17.3,4.5-25.9c1.7-9.7,3.4-19.4,5.1-29.2c0.3-1.7,1.1-1.9,2.3-1c2,1.5,3.9,3.1,5.6,4.9
			c0.7,0.7,0.8,2.2,0.8,3.3C412.8,461.1,412.8,473.5,412.8,485.8z"/>
		<path d="M567.3,624.3c0,9.3,0,18.6,0,27.8c0,3.3-0.1,3.4-3.3,3.4c-4.5,0-9,0-13.4,0c-3.5,0-3.5,0-3.5-3.7c0-17.9,0-35.8,0-53.8
			c0-6.3-0.6-5.5,5.5-5.6c4,0,8,0.1,12,0c2.3-0.1,2.9,0.8,2.9,3C567.3,605.1,567.3,614.7,567.3,624.3z"/>
		<path d="M499.4,623.9c0,9.5,0,19,0,28.6c0,2.9-0.2,3.1-3.1,3.1c-4.8,0-9.6-0.1-14.4,0c-2,0-2.8-0.6-2.8-2.6c0-19.4,0-38.7,0-58.1
			c0-1.6,0.6-2.4,2.2-2.4c5.3,0,10.6,0.1,15.8,0c2.1,0,2.2,1.2,2.2,2.8C499.4,604.9,499.4,614.4,499.4,623.9z"/>
		<path d="M408.9,624.1c0,9.4,0,18.9,0,28.3c0,2.8-0.3,3.2-3.2,3.2c-3.8,0-7.5-0.1-11.3,0c-2.1,0.1-2.9-0.8-2.8-2.8
			c0.1-1.2-0.1-2.4,0-3.6c0.1-1.8-0.4-3.1-1.9-4.4c-0.8-0.7-1.4-2.1-1.4-3.2c-0.1-14.5,0-29.1-0.1-43.6c0-1.9,0.9-2.7,2.4-3.6
			c5.2-2.8,10.8-1.5,16.2-1.7c1.9-0.1,1.9,1.5,1.9,2.9C408.9,605.1,408.9,614.6,408.9,624.1z"/>
		<path d="M476.8,624.1c0,9.4,0,18.9,0,28.3c0,2.9-0.3,3.2-3.1,3.2c-4.8,0-9.6-0.1-14.4,0c-2.2,0.1-3.2-0.6-3.1-3
			c0.1-4.8,0.1-9.6,0-14.4c0-1.7,0.4-2.8,2.4-2.7c2,0.1,2-1.4,2-2.8c0-12.1,0-24.3,0-36.4c0-3.5,0.1-3.7,3.6-3.7c3.1,0,6.2,0,9.3,0
			c3.1,0,3.3,0.2,3.3,3.2C476.8,605.3,476.8,614.7,476.8,624.1z"/>
		<path d="M501.8,623.9c0-9.4,0.1-18.9,0-28.3c0-2.4,0.8-3.1,3.1-3c3.4,0.1,6.7,0.1,10.1,0c1.6,0,2.5,0.4,2.8,2.1
			c2,11.8,5,23.4,4.2,35.5c-0.1,1.9-0.6,3.3-2.1,4.5c-4,3.2-7.9,6.5-12,9.6c-2,1.5-3.2,3.2-2.8,5.9c0.2,1.2,0.2,2.4-0.1,3.6
			c-0.2,0.7-1,1.2-1.5,1.8c-0.5-0.6-1.2-1.1-1.5-1.7c-0.2-0.4-0.1-1.1-0.1-1.7C501.8,642.7,501.8,633.3,501.8,623.9z"/>
		<path d="M245.9,607c0,6.7,0,13.4,0,20.2c0,3.3-0.2,3.5-3.6,3.5c-3,0-6.1-0.1-9.1,0c-1.9,0.1-3-0.5-2.8-2.5
			c0.1-1.6-0.6-2.2-2.1-2.1c-2,0.2-2.6-0.8-2.6-2.7c0.1-12.2,0-24.5,0-36.7c0-2.9,0.3-3.2,3.1-3.2c4.6,0,9.3,0,13.9,0
			c2.8,0,3.1,0.3,3.1,3.2C245.9,593.4,245.9,600.2,245.9,607z"/>
		<path d="M-68.6,652.3c0,7.8-0.1,15.5,0,23.3c0,2-0.6,2.7-2.6,2.7c-4.2-0.1-8.5-0.1-12.7,0c-1.7,0-2.4-0.6-2.4-2.4
			c0.1-15.6,0.1-31.2,0-46.7c0-2.2,0.8-2.9,3-2.8c3.9,0.1,7.8,0.2,11.7,0c2.5-0.1,3,0.9,3,3.1C-68.7,637-68.6,644.7-68.6,652.3z"/>
		<path d="M-106.9,652.2c0-7.6,0-15.2,0-22.8c0-2.9,0.2-3.1,3.2-3.1c4,0,8,0,12,0c1.9,0,2.6,0.8,2.6,2.6c0,15.7,0,31.5,0,47.2
			c0,1.6-0.7,2.1-2.2,2.1c-4.5,0-8.9-0.1-13.4,0c-1.7,0-2.2-0.8-2.1-2.3C-106.9,668-106.9,660.1-106.9,652.2z"/>
		<path d="M-109.2,652.4c0,7.7-0.1,15.3,0,23c0,2-0.6,2.9-2.7,2.8c-4.2-0.1-8.3-0.1-12.5,0c-2,0-2.9-0.5-2.8-2.7
			c0.1-15.3,0-30.7,0-46c0-2.8,0.3-3.1,3.2-3.1c4,0,8,0.1,12,0c2.1,0,2.8,0.8,2.8,2.9C-109.3,636.9-109.2,644.6-109.2,652.4z"/>
		<path d="M461,487.7c2,1.6,3.7,2.9,5.3,4.3c11.6,9.9,23.1,19.9,34.7,29.8c0.8,0.7,1.6,1.3,2.3,2.1c0.4,0.5,0.7,1.1,1,1.7
			c-0.6,0.2-1.3,0.6-1.9,0.6c-6.7,0-13.4,0-20.1,0c-6.3,0-12.6,0-19,0c-1.7,0-2.8-0.4-2.8-2.3c0-11.6,0-23.2,0-34.8
			C460.6,488.9,460.7,488.7,461,487.7z"/>
		<path d="M266.5,607.1c0,6.9,0,13.7,0,20.6c0,2.1-0.6,3.1-2.9,3c-4.2-0.1-8.3-0.1-12.5,0c-2,0-2.9-0.7-2.9-2.8c0-14,0-28,0-42
			c0-1.8,0.8-2.6,2.6-2.6c4.3,0,8.6,0.1,12.9,0c2.2-0.1,2.8,0.9,2.7,2.9C266.4,593.2,266.5,600.1,266.5,607.1z"/>
		<path d="M203.2,604.6c0-6.1,0.1-12.3,0-18.4c0-2.2,0.7-2.9,2.9-2.9c4.9,0.1,9.7,0.1,14.6,0c1.8,0,2.4,0.6,2.4,2.4
			c0,12.8,0,25.5,0,38.3c0,1.4-0.5,2-2,2c-5.3,0-10.7,0-16,0c-1.7,0-2-0.9-1.9-2.3C203.2,617.4,203.2,611,203.2,604.6z"/>
		<path d="M732.5,188.7c-0.4,4.3-1.2,7.7-5.2,9.8c-3.9,2.1-7.5,4.8-11.2,7.2c-2,1.3-2.7,1.1-3.2-1.3c-2.1-10.5-4.2-20.9-6.4-31.3
			c-0.9-4.3-0.9-4.3,3.1-6.3c2.3-1.1,4.7-2.1,6.9-3.3c2.2-1.2,4.5-1.4,6.3-0.2c1.3,0.9,2.2,2.8,2.8,4.4c2.2,6.2,4.3,12.5,6.4,18.7
			C732.3,187.3,732.4,188.1,732.5,188.7z"/>
		<path d="M343.3,624.1c0-9.5,0.1-19,0-28.5c0-2.2,0.8-3,2.9-3c4.1,0.1,8.1,0.1,12.2,0c1.9,0,2.7,0.4,2.3,2.7
			c-1.3,6.6-2.3,13.2-3.5,19.8c-2.1,11.5-4.2,23-6.2,34.5c-0.2,1.3-0.4,2.5-0.5,3.8c-0.2,1.6-1.1,2.2-2.8,2.3
			c-4.1,0.1-4.3-0.1-4.3-4.2C343.3,642.3,343.3,633.2,343.3,624.1z"/>
		<path d="M436.4,517c-5.4,0-10.7,0-16.1,0c-1.9,0-2.8-0.6-2.7-2.7c0.1-5,0.1-9.9,0-14.9c0-1.8,0.7-2.6,2.6-2.6
			c10.9,0,21.9,0,32.8,0c1.8,0,2.6,0.7,2.6,2.5c-0.1,5-0.1,10.1,0,15.1c0,2-1,2.5-2.7,2.5C447.4,516.9,441.9,517,436.4,517z"/>
		<path d="M431.8,562.6c-4.9,0-8.3,0-11.6,0c-1.8,0-2.6-0.7-2.6-2.6c0.1-5.1,0.1-10.2,0-15.3c0-1.7,0.5-2.5,2.3-2.5
			c11.1,0,22.2,0,33.3,0c1.7,0,2.5,0.6,2.4,2.4c-0.1,3-0.2,5.9,0,8.9c0.2,2.6-1,3.7-3.1,4.7C445.5,561.5,438.3,563.9,431.8,562.6z"
			/>
		<path d="M436.5,494.6c-5.3,0-10.7-0.1-16,0c-2.2,0-2.9-0.7-2.9-2.9c0.1-4.9,0.1-9.7,0-14.6c0-1.9,0.5-2.8,2.6-2.8
			c8,0.1,16,0,23.9,0c0.1,0,0.2,0,0.2,0c4.4,1.1,6.7,5.1,10.1,7.7c0.9,0.7,1,2.7,1.1,4.1c0.2,1.8-0.1,3.7,0.1,5.5
			c0.2,2.4-0.9,3.1-3.1,3c-2.7-0.1-5.4,0-8.1,0C441.8,494.6,439.2,494.6,436.5,494.6z"/>
		<path d="M447.3,302.4c-11.3,0.3-20.4-9.4-20.2-20.2c0.2-11.6,9.1-20.1,20.3-20.2c11-0.1,20.1,9.4,20.2,20.4
			C467.7,293,458.1,302.9,447.3,302.4z M433.9,282.1c-0.5,7.5,6.2,13.8,13.5,13.8c7.3,0,13.6-6.3,13.6-13.6
			c0-7.4-6.1-13.5-13.6-13.5C439.7,268.8,434,274.5,433.9,282.1z"/>
		<path d="M442.7,449c-2.4,0-4.8-0.2-7.2,0.1c-3.5,0.4-6.1-0.9-8.6-3.1c-2.5-2.3-5.3-4.4-7.7-6.8c-0.9-0.9-1.5-2.6-1.5-4
			c-0.1-6.8-0.9-6.1,5.8-6.1c9.7,0,19.3,0,29,0c2.2,0,3.2,0.6,3.1,3c-0.1,4.8-0.1,9.6,0,14.4c0,2-0.8,2.7-2.7,2.7
			C449.5,448.9,446.1,449,442.7,449z"/>
		<path d="M418.6,403.7c0.4-0.8,0.6-1.6,1.1-2.1c4.3-5.4,8.7-10.9,13.1-16.2c0.7-0.8,2-1.4,3.1-1.4c5.7-0.1,11.5,0,17.3-0.1
			c1.7,0,2.5,0.7,2.5,2.4c0,5.1,0,10.2,0,15.3c0,1.5-0.6,2.4-2.3,2.4c-11.2,0-22.4,0-33.6,0C419.5,404,419.2,403.9,418.6,403.7z"/>
		<path d="M418.9,358.4c1.1-6,2.3-11.7,3.1-17.4c0.3-2.2,1.4-2.5,3.2-2.5c7.9,0,15.8,0,23.7,0c1.3,0,2.6,0,3.8,0
			c2.6,0,3.6,1.3,2.5,3.6c-0.8,1.7-2.1,3.2-3.3,4.7c-2.9,3.7-5.9,7.3-8.9,10.9c-0.5,0.6-1.5,1.1-2.2,1.1c-6.8,0.1-13.6,0-20.4,0
			C420,358.8,419.6,358.6,418.9,358.4z"/>
		<path d="M701,125.6c3.1-0.8,4.8,0.6,6.1,3.2c2.3,4.6,4.9,9,7.3,13.5c2,3.8,0.9,5.8-3.2,6.8c-5.6,1.4-11.2,3-16.9,4.5
			c-1.2,0.3-2.3,0.6-3.5,0.9c-1.5,0.4-2.6,0.1-3.5-1.3c-0.4-0.8-1-1.5-1.6-2.1c-1.2-1.2-1.1-2.4-0.4-3.7c3.6-6.8,6.9-13.6,10.8-20.3
			c0.7-1.3,3.1-1.6,4.7-2.3C700.9,125.1,701,125.3,701,125.6z"/>
		<path d="M411.1,623.8c0-9.3,0-18.6,0-27.8c0-0.6-0.1-1.2,0.1-1.7c0.1-0.4,0.6-0.7,0.8-1c0.3,0.3,0.7,0.6,0.8,0.9
			c0.2,0.4,0.1,0.9,0.1,1.4c0,12.2,0,24.3,0,36.5c0,1.1,0.5,2.8,1.2,3.2c1.3,0.7,2.9,0.3,3.7-1.5c0.3-0.6,1.4-1,2.2-1
			c3.1-0.1,6.2,0,9.4-0.1c1.6,0,2.1,0.8,2.1,2.2c0,6.2,0,12.3,0,18.5c0,1.7-0.8,2.2-2.4,2.1c-5-0.1-10.1-0.1-15.1,0
			c-2.2,0.1-3-0.9-2.9-3C411.2,643,411.2,633.4,411.1,623.8C411.1,623.8,411.1,623.8,411.1,623.8z"/>
		<path d="M385.5,641.3c-3-2.4-5.8-4.6-8.5-6.8c-1.6-1.2-3.2-2.4-4.6-3.8c-0.7-0.8-1.3-2.3-1.2-3.3c1.1-7.1,2.5-14.1,3.7-21.2
			c0.2-1,0-2.2,0.5-3.1c0.7-1.3,1.5-2.6,2.6-3.4c1.8-1.1,3.9-1.7,5.9-2.6c1.3-0.6,2-0.3,2,1.2c0,13.7,0,27.5,0,41.2
			C386,640,385.8,640.4,385.5,641.3z"/>
		<path d="M433.9,644.1c0-3,0-5.9,0-8.9c0-1.7,0.5-2.5,2.3-2.5c5.1,0.1,10.2,0.1,15.4,0c1.7,0,2.3,0.8,2.3,2.4c0,6,0,12,0,18
			c0,1.6-0.5,2.5-2.4,2.5c-5-0.1-10.1-0.1-15.1,0c-1.9,0-2.5-0.8-2.5-2.6C434,650.1,433.9,647.1,433.9,644.1z"/>
		<path d="M436.6,417.5c-5.4,0-10.9,0-16.3,0c-1.9,0-2.8-0.6-2.7-2.6c0.1-2.1,0.1-4.2,0-6.2c0-1.6,0.7-2.3,2.3-2.3
			c11.2,0,22.4,0,33.5,0c1.5,0,2.2,0.7,2.2,2.2c0,2.2-0.1,4.3,0,6.5c0.1,1.9-0.7,2.5-2.5,2.5C447.6,417.5,442.1,417.5,436.6,417.5z"
			/>
		<path d="M502.8,536.7c-2.5,1.1-5,2.1-7.6,3.2c-10.7,4.5-21.4,9.1-32.1,13.6c-2,0.9-2.6,0.6-2.6-1.7c0-4.6,0-9.3,0-13.9
			c0-1.7,0.7-2.3,2.3-2.3c12.6,0,25.3,0,37.9,0c0.7,0,1.4,0.3,2.1,0.4C502.8,536.3,502.8,536.5,502.8,536.7z"/>
		<path d="M453.9,620c0,2.6,0,5.3,0,7.9c0,1.9-0.7,2.5-2.6,2.5c-5-0.1-9.9-0.1-14.9,0c-1.7,0-2.5-0.5-2.5-2.3c0.1-5.4,0-10.7,0-16.1
			c0-1.4,0.6-2,2-2c5.4,0,10.7,0,16.1,0c1.5,0,1.9,0.7,1.9,2.1C453.8,614.8,453.9,617.4,453.9,620z"/>
		<path d="M436.4,584.9c-5.4,0-10.7,0-16.1,0c-0.8,0-1.6-0.6-2.4-1c0.6-0.6,1-1.4,1.7-1.7c8.8-3.8,17.6-7.5,26.4-11.3
			c2.5-1.1,5-2.1,7.5-3.2c1.5-0.7,2.1-0.2,2.2,1.3c0,4.6,0,9.1,0,13.7c0,1.8-1,2.3-2.7,2.2C447.4,584.9,441.9,584.9,436.4,584.9z"/>
		<path d="M543.9,649.5c-0.6-2.9-1.3-5.7-1.8-8.6c-1.9-10.8-3.6-21.7-5.5-32.5c-0.8-4.4-1.6-8.8-2.5-13.1c-0.4-2.1,0.4-2.8,2.4-2.7
			c1.8,0.1,3.5,0.1,5.3,0c2.2-0.1,2.9,0.8,2.9,3c-0.1,13,0,26,0,39.1c0,3.6,0.1,7.2,0.1,10.8c0,1.3-0.2,2.7-0.3,4
			C544.3,649.4,544.1,649.4,543.9,649.5z"/>
		<path d="M502.2,314.9c0,2.5,0,5,0,7.4c0,1.6-0.5,2.5-2.4,2.5c-3.6-0.1-7.2-0.1-10.8,0c-1.9,0-2.8-0.7-3.1-2.8
			c-0.5-4.1-1.4-8.2-2.1-12.2c-0.5-2.7-0.4-2.9,2.3-3c0.6,0,1.4,0.1,1.6-0.2c1.8-3,4.7-1.5,7.1-1.8c1.7-0.2,3.4,0,5,0
			c1.6-0.1,2.3,0.7,2.3,2.3C502.1,309.6,502.2,312.3,502.2,314.9z"/>
		<path d="M491.8,302.4c-2.4,0-4.8-0.1-7.2,0c-2,0.1-2.8-0.5-2.8-2.5c0.1-3.7,0-7.3,0-11c0-1.4,0.5-2.1,1.9-2.1c5.4,0,10.9,0,16.3,0
			c1.4,0,2.1,0.5,2.1,2c0,3.8,0,7.7,0,11.5c0,1.6-0.8,2.2-2.4,2.2C497.1,302.3,494.5,302.4,491.8,302.4
			C491.8,302.4,491.8,302.4,491.8,302.4z"/>
		<path d="M403.8,286.8c2.5,0,5,0.1,7.4,0c1.8-0.1,2.6,0.6,2.5,2.5c-0.1,3.4-0.1,6.9,0,10.3c0,2-0.6,2.9-2.8,2.9
			c-4.8-0.1-9.6-0.1-14.4,0c-2.2,0-3-0.8-2.9-3c0.1-3.4,0.1-6.7,0-10.1c-0.1-2.1,0.8-2.7,2.7-2.6
			C398.8,286.9,401.3,286.8,403.8,286.8z"/>
		<path d="M393.7,314.6c0-2.6,0-5.1,0-7.7c0-1.5,0.6-2.2,2.1-2.2c3,0,5.9,0,8.9,0c0.6,0,1.2,0.4,1.7,0.6c0.9,0.4,1.8,1.2,2.7,1.3
			c1.5,0.2,2,0.9,1.8,2.2c-0.8,4.7-1.6,9.4-2.5,14.1c-0.1,0.7-1.3,1.7-2,1.7c-3.4,0.2-6.9,0-10.3,0.1c-1.6,0-2.3-0.7-2.3-2.3
			C393.8,319.9,393.7,317.2,393.7,314.6C393.7,314.6,393.7,314.6,393.7,314.6z"/>
		<path d="M103.9,637.3c0.2,2.3,2,3,3.7,3.7c14.5,5.5,29.5,7.7,44.9,6.5c5.2-0.4,10.4-1.6,15.6-2.6c2.6-0.5,3.6-2.8,4.8-4.7
			c0.2-0.2-0.6-1.3-1.1-1.7c-11.6-8.5-23.2-16.9-34.8-25.4c-3.2-2.3-6.4-4.6-9.9-7.1c0.3-0.6,0.8-1.4,1.1-2
			c16.2,11.8,32.1,23.4,48.3,35.2c-1.7,2.3-2.9,4.7-4.9,6.2c-1.7,1.3-4.1,2.1-6.4,2.4c-7.9,0.9-15.9,2.1-23.8,2
			c-12.7-0.1-25-2.8-36.7-7.8c-1.1-0.5-2.4-0.3-3.6-0.4C101.8,640.5,102.9,638.9,103.9,637.3L103.9,637.3z"/>
		<path d="M443.9,607.7c-2.6,0-5.3,0-7.9,0c-1.4,0-2-0.5-2-2c0-3.7,0-7.4,0-11c0-1.6,0.8-2.1,2.2-2.1c5.2,0,10.4,0,15.6,0
			c1.5,0,2.2,0.7,2.2,2.2c0,3.6-0.1,7.2,0,10.8c0,1.5-0.6,2.2-2.1,2.2C449.1,607.6,446.5,607.7,443.9,607.7
			C443.9,607.7,443.9,607.7,443.9,607.7z"/>
		<path d="M429,361.2c2.9,0,5.8,0,8.6,0c0.5,0,1.1,0.4,1.6,0.7c-0.2,0.5-0.4,1-0.7,1.4c-4.4,5.4-8.7,10.8-13.1,16.2
			c-1.2,1.4-5.5,2.3-7,1.3c-0.4-0.2-0.8-0.9-0.8-1.3c0.1-5.5,0.3-11,0.5-16.5c0-1.5,0.9-1.9,2.2-1.8
			C423.2,361.2,426.1,361.2,429,361.2z"/>
		<path d="M431.6,620.3c0,2.6-0.1,5.1,0,7.7c0.1,1.8-0.6,2.6-2.5,2.5c-2.9-0.1-5.9-0.1-8.9,0c-1.8,0-2.6-0.7-2.6-2.5
			c0.1-5.2,0.1-10.4,0-15.6c0-1.7,0.6-2.3,2.2-2.3c3.2,0,6.4,0.1,9.6,0c1.5,0,2.2,0.5,2.1,2.1C431.5,614.8,431.6,617.5,431.6,620.3z
			"/>
		<path d="M441.3,471.9c-7.3,0-14.7,0-22-0.1c-0.6,0-1.6-1.2-1.6-1.8c-0.1-5.4-0.1-10.9-0.1-16.3c0-0.5,0.5-1.5,0.8-1.5
			c0.7-0.1,1.6,0.1,2.1,0.6c3.7,3.1,7.3,6.2,10.9,9.3c2.7,2.3,5.5,4.6,8.2,7c0.7,0.6,1.3,1.5,2,2.2
			C441.6,471.5,441.5,471.7,441.3,471.9z"/>
		<path d="M231.8,333.3c-5.1-0.1-8.7-3.8-8.7-8.8c0-4.8,4.3-9,9.1-8.9c4.5,0.1,9.1,4.6,8.9,9C240.8,329,237.2,333.7,231.8,333.3z"/>
		<path d="M436.6,526.2c-5.4,0-10.7-0.1-16.1,0c-2.4,0.1-3-1-3-3.2c0-2.1,0.4-3.3,2.9-3.2c10.8,0.1,21.6,0.1,32.3,0
			c2.4,0,2.9,1.1,2.9,3.2c0,2.2-0.6,3.2-3,3.2C447.3,526.1,442,526.2,436.6,526.2z"/>
		<path d="M436.6,380.7c2.1-2.7,3.9-5,5.7-7.3c2.9-3.6,5.7-7.2,8.8-10.7c0.7-0.8,2.3-1,3.4-1.5c0.4,0.9,1,1.9,1,2.8
			c0.1,4.7,0,9.4,0.1,14.1c0.1,2.1-0.6,2.9-2.7,2.8c-4.5-0.1-9.1,0-13.6,0C438.6,381.1,437.8,380.9,436.6,380.7z"/>
		<path d="M417.6,600.3c0-1.8,0-3.5,0-5.3c0-1.6,0.6-2.4,2.2-2.4c3.3,0,6.5-0.1,9.8,0.1c0.7,0,1.8,1.1,1.8,1.8
			c0.2,3.8,0.1,7.6,0.1,11.5c0,1.4-0.7,1.8-2,1.8c-3.3,0-6.5,0-9.8,0c-1.7,0-2.2-0.8-2.2-2.4C417.7,603.6,417.6,602,417.6,600.3
			C417.6,600.3,417.6,600.3,417.6,600.3z"/>
		<path d="M445.3,451.9c2.6,0,5.3,0,7.9,0c1.7,0,2.5,0.7,2.4,2.5c-0.1,4.4,0,8.8,0,13.2c0,0.6-0.3,1.1-0.5,1.7
			c-0.6-0.3-1.3-0.4-1.8-0.8c-5.6-4.8-11.2-9.6-16.7-14.4c-0.4-0.4-0.7-1-1-1.5c0.6-0.2,1.2-0.7,1.8-0.7
			C440,451.8,442.6,451.9,445.3,451.9z"/>
		<path d="M439.3,336.1c-4.5,0-9,0-13.4,0c-1.4,0-2.6,0-2.6-1.9c0-3.4,0.5-4.4,2.6-4.4c9.1,0,18.2,0,27.4,0c2.4,0,2.4,1.3,2.4,3.1
			c0,1.9-0.2,3.3-2.7,3.2C448.4,336,443.8,336.1,439.3,336.1z"/>
		<path d="M185.2,519.9c-3.2,1.9-5.1-0.1-7.4-1.7c-5.6-4.2-11.3-8.3-17-12.3c-2.2-1.5-4.2-2.9-3-6
			C163.4,498.5,183.3,512.9,185.2,519.9z"/>
		<path d="M436.6,539.9c-5.4,0-10.7,0-16.1,0c-1.5,0-2.9,0-2.9-2.2c0-2.1,1.4-2,2.8-2c10.9,0,21.7,0,32.6,0c1.4,0,2.7,0,2.7,2.1
			c-0.1,2-1.3,2.1-2.8,2.1C447.4,539.8,442,539.9,436.6,539.9z"/>
		<path d="M677,214.2c2-0.6,4.1-1.3,6.1-1.6c3.4-0.5,3.8-1.1,3.1-4.4c-1.7-8-3.4-16-5.1-24c-0.8-3.6-1.5-7.2-2.4-10.7
			c-0.1-0.5-1.1-1.3-1.6-1.3c-2,0.2-4,0.8-6,1.2c-0.9,0.2-1.8,0.1-2.7,0.2c0-0.2-0.1-0.4-0.1-0.7c3.4-1.1,6.8-2.2,10.3-3.1
			c0.5-0.1,1.6,0.7,1.8,1.2c1.9,8.3,3.6,16.6,5.4,25c1,4.8,1.9,9.7,3.1,14.5c0.6,2.3-0.3,3-2.1,3.4c-1.1,0.3-2.2,0.3-3.3,0.4
			c-2.1,0.1-4.1,0.3-6.2,0.4C677.2,214.5,677.1,214.4,677,214.2z"/>
		<path d="M142.9,532.3c0.7-0.3,1.4-1,2.1-1c7,0.6,13.2,5.9,14.5,12.8c1.2,6.1-0.8,10.8-5,14.8c-4.4,4.2-9.9,4.7-15.4,3.1
			c-2.2-0.6-4.1-2.4-6-3.8c-0.4-0.3-0.4-1.3-0.5-2c0.7,0.2,1.6,0.2,2,0.7c5,5.6,15.9,5.2,20.8-1.8c5.6-7.9,1-19.7-8.6-21.3
			c-1.2-0.2-2.4-0.4-3.7-0.6C143.1,532.8,143,532.5,142.9,532.3z"/>
		<path d="M152.3,499.2c-0.7,0.2-1.5,0.7-2.2,0.6c-15.4-1.5-28.6,2.8-39.7,13.7c-1.3,1.3-2.9,2.2-4.9,3.7
			C108,505.6,141.5,492.8,152.3,499.2z"/>
		<path d="M200.4,583.6c0.2,0.8,0.5,1.6,0.5,2.3c0,12.6,0,25.3,0,37.9c0,0.7-0.7,1.3-1,2c-0.4-0.7-1-1.4-1-2.1
			c-0.1-12.5-0.1-25.1,0-37.6c0-0.9,0.4-1.7,0.7-2.6C199.8,583.5,200.1,583.6,200.4,583.6z"/>
		<path d="M70.4,612.1c0.2-0.9,0.2-2,0.7-2.6c5.9-8.2,11.8-16.4,17.8-24.6c0.7-1,2.1-1.4,3.2-2.1c0.2,0.2,0.3,0.3,0.5,0.5
			c-7,9.7-14.1,19.4-21.1,29.1C71,612.3,70.7,612.2,70.4,612.1z"/>
		<path d="M103.9,637.3c2.6-3.6,5.3-7.1,7.9-10.7c4-5.6,8-11.1,12-16.7c0.6-0.8,1.3-1.5,2-2.3c0.3,0.1,0.5,0.3,0.8,0.4
			c-0.5,1.3-0.8,2.8-1.6,3.9c-5.5,7.7-11.1,15.4-16.7,23.1C107.2,636.5,106,637.8,103.9,637.3C103.9,637.3,103.9,637.3,103.9,637.3z
			"/>
		<path d="M118.7,591.6c-0.3,1.3-0.5,2-0.9,3.4c1.8-0.4,3.2-0.7,4.6-0.9c0.6-0.1,1.2,0.3,1.9,0.5c-0.4,0.5-0.6,1.2-1.1,1.5
			c-7.4,3.4-16.1-0.5-18.6-8.2c-0.2-0.6-0.1-1.3-0.1-1.9c0.3-0.1,0.6-0.3,0.9-0.4c1.1,1.8,2.2,3.5,3.4,5.5c0.5-0.4,0.9-0.7,1.4-1.1
			C114,593,116.4,593.6,118.7,591.6z"/>
		<path d="M434.2,565.7c-3,1.4-6,2.7-9,4c-1.7,0.8-3.5,1.4-5.2,2.2c-1.5,0.7-2.3,0.4-2.3-1.3c-0.1-6.5-0.3-5.7,5.3-5.7
			c3.1,0,6.2-0.1,9.3-0.1c0.6,0,1.2,0.1,1.7,0.2C434.1,565.2,434.1,565.5,434.2,565.7z"/>
		<path d="M417.7,589.1c2.3-2,36.2-1.7,38.1-0.1c-1.1,0.3-1.9,0.6-2.8,0.6c-10.9,0-21.9,0-32.8,0
			C419.4,589.7,418.6,589.3,417.7,589.1z"/>
		<path d="M440,324.9c-4.3,0-8.6,0-13,0c-0.6,0-1.3-0.6-1.9-0.9c0.6-0.5,1.1-1.2,1.7-1.4c0.8-0.2,1.7-0.1,2.6-0.1c7.5,0,15,0,22.5,0
			c0.6,0,1.2-0.1,1.7,0.1c0.6,0.2,1,0.8,1.5,1.2c-0.5,0.4-1,1-1.6,1.1c-2.5,0.1-5,0.1-7.4,0.1C444.2,324.9,442.1,324.9,440,324.9z"
			/>
		<path d="M187.2,522.3c5.4,9.1,7.2,18.6,6.6,28.6c0,0.7-0.9,1.4-1.4,2.1c-0.3-0.7-0.8-1.5-0.7-2.2c0.5-8.1-0.7-15.9-4-23.3
			c-0.2-0.4-0.2-0.9-0.5-1C184.6,525.2,186.4,524,187.2,522.3z"/>
		<path d="M457.2,224.8c0.2-0.3,0.6-0.9,0.9-1.4c0.4,0.4,0.9,0.8,1.1,1.3c1.2,5.1,2.4,10.2,3.5,15.4c0.8,3.7,1.5,7.3,2.3,11
			c0.1,0.5,0.4,1,0.3,1.4c-0.1,0.5-0.6,1-0.9,1.5c-0.4-0.3-1-0.6-1.1-1c-0.7-2.5-1.3-5.1-1.8-7.6c-1.3-6.2-2.6-12.3-4-18.5
			C457.4,226.3,457.3,225.8,457.2,224.8z"/>
		<path d="M414.3,232.9c0.4,1,1,1.9,1.2,2.9c1.5,6.9,2.9,13.9,4.3,20.8c0.4,1.8,0.8,3.6,1.1,5.3c0.1,0.5-0.4,1.1-0.6,1.6
			c-0.5-0.4-1.2-0.7-1.3-1.1c-0.8-3.1-1.5-6.2-2.2-9.3c-1.2-5.4-2.4-10.9-3.5-16.3c-0.2-1.2-0.2-2.5-0.3-3.7
			C413.5,233,413.9,233,414.3,232.9z"/>
		<path d="M102.3,522.9c-1.7,5.6-3.8,10.6-4.8,15.8c-0.8,4-0.5,8.2-0.7,12.4c0,0.7-0.4,1.3-0.6,2c-0.5-0.6-1.4-1.1-1.4-1.8
			c-0.7-9,0.7-17.7,4.8-25.8C100,524.5,101.2,523.9,102.3,522.9z"/>
		<path d="M478.5,301.6c-0.8-2.5-1.7-5-2.5-7.6c-0.5-1.7-1.2-3.3-1.5-5c-0.1-0.7,0.6-2.1,0.9-2.1c1.4,0.1,3.9,0.5,3.9,0.9
			c0.3,4.5,0.2,9.1,0.2,13.7C479.1,301.5,478.8,301.6,478.5,301.6z"/>
		<path d="M129.9,550.2c-4-3.9,1.8-15.8,7-16.2c-1.8,2.7-3.8,4.9-5,7.6C130.8,544.1,130.6,547,129.9,550.2z"/>
		<path d="M121,567c-0.8,1.9-1.6,3.9-2.2,5.4c-2.2,0.4-4,0.8-5.7,1.1c-0.7,0.1-1.4-0.2-2.1-0.3c0.4-0.6,0.7-1.6,1.2-1.8
			c1.6-0.6,3.4-0.9,5.1-1.4c0.6-0.2,1.1-0.6,1.7-0.9c-0.6-0.4-1.2-1-1.9-1c-1.3-0.1-2.7,0.1-4,0.2c0-0.3,0-0.5-0.1-0.8
			C115.5,567.3,118.2,567.2,121,567z"/>
		<path d="M416.7,297.2c0-3.1-0.1-6.3,0.1-9.4c0-0.4,1.8-0.8,2.7-0.9c0.1,0,0.8,1.3,0.7,1.9c-0.5,2.4-1.2,4.7-1.9,7.1
			c-0.1,0.5-0.4,0.9-0.7,1.4C417.3,297.3,417,297.3,416.7,297.2z"/>
		<path d="M412,432.8c-1.7-1.4-3.4-2.8-5-4.3c-0.2-0.1,0-1,0.2-1c1.4-0.2,2.8-0.6,4.1-0.5c0.6,0.1,1.3,1.1,1.4,1.8
			c0.2,1.1,0.1,2.3,0.1,3.5C412.5,432.5,412.3,432.6,412,432.8z"/>
		<path d="M404.5,588.5c2.3-0.9,4.6-1.9,6.9-2.7c0.3-0.1,1.3,0.8,1.3,1.2c-0.1,0.9-0.6,2.4-1,2.5c-2.3,0.3-4.6,0.1-7,0.1
			C404.6,589.2,404.5,588.9,404.5,588.5z"/>
		<path d="M126.9,573.4c1.2,2.1,2.5,4.1,3.6,6.3c0.2,0.4-0.3,1.2-0.4,1.8c-0.5-0.3-1.1-0.5-1.5-0.9c-1.1-1.4-2.2-2.8-3.1-4.4
			c-0.3-0.7,0.1-1.7,0.1-2.6C126.1,573.5,126.5,573.4,126.9,573.4z"/>
		<path d="M412.8,411.9c0,1.4,0.2,2.8,0,4.2c-0.3,1.8-1.8,1.5-3,1.3c-1.5-0.2-1.2-1.3-0.7-2.2c0.8-1.3,1.8-2.5,2.8-3.8
			C412.1,411.6,412.4,411.8,412.8,411.9z"/>
		<path d="M465.1,324.8c-1,0-1.9,0.1-2.8-0.1c-0.5-0.1-0.9-0.7-1.3-1.1c0.4-0.4,0.8-1.1,1.3-1.1c1.9-0.1,3.8-0.2,5.7,0
			c0.5,0,0.9,0.8,1.4,1.3c-0.5,0.3-0.9,0.9-1.4,1C467,325,466,324.9,465.1,324.8C465.1,324.9,465.1,324.8,465.1,324.8z"/>
		<path d="M225.5,312c-0.1,0-0.6-0.3-0.8-0.7c-0.1-0.3,0.3-1.1,0.6-1.1c2.4-0.6,4.7-1.1,7.1-1.5c0.2,0,0.8,0.7,0.9,1.2
			c0.1,0.3-0.4,0.9-0.8,1C230.4,311.3,228.2,311.6,225.5,312z"/>
		<path d="M461.4,334.7c-1.2-4.8-0.3-5.7,3.8-4.2C463.8,332,462.6,333.3,461.4,334.7z"/>
		<path d="M133.3,588.4c0-3.3,0-6.1,0-8.9C134.7,580.9,134.8,585.5,133.3,588.4z"/>
		<path d="M417.9,387.4c-0.5-1.4-0.7-2.7,1.1-3.4c0.5-0.2,1.2,0.3,1.8,0.5c-0.6,1.1-1.3,2.2-1.9,3.4
			C418.5,387.7,418.2,387.6,417.9,387.4z"/>
		<path d="M103.6,591.9c1.5,1.6,3,3.2,4.5,4.7c-0.3,0.3-0.7,0.7-1,1c-1.5-1.6-3-3.1-4.6-4.7C102.9,592.6,103.3,592.3,103.6,591.9z"
			/>
		<path d="M101.4,581.6c0,1.4,0,2.7,0,4.1c-0.2,0-0.4,0-0.6,0c0-1.4,0-2.8,0-4.2C101,581.5,101.2,581.6,101.4,581.6z"/>
		<path class="st0" d="M433.9,282.1c0-7.7,5.8-13.4,13.5-13.4c7.5,0,13.6,6.1,13.6,13.5c0,7.3-6.3,13.6-13.6,13.6
			C440.1,295.9,433.4,289.6,433.9,282.1z"/>
	</g>
</g>
</svg>
